<?xml version="1.0" encoding="utf-8"?>
<!-- Generator: Adobe Illustrator 16.0.3, SVG Export Plug-In . SVG Version: 6.00 Build 0)  -->
<!DOCTYPE svg PUBLIC "-//W3C//DTD SVG 1.1//EN" "http://www.w3.org/Graphics/SVG/1.1/DTD/svg11.dtd">
<svg version="1.1" id="Layer_1" xmlns="http://www.w3.org/2000/svg" xmlns:xlink="http://www.w3.org/1999/xlink" x="0px" y="0px"
	 width="792px" height="612px" viewBox="0 0 792 612" enable-background="new 0 0 792 612" xml:space="preserve">
<g>
	<path fill="none" d="M290.618,238.723L290.618,238.723c-7.562-1.633-15.213-4.863-22.586-7.877
		C275.411,233.865,283.057,237.09,290.618,238.723z"/>
	<rect x="394.653" y="525.467" fill="none" width="0.006" height="18.748"/>
	<path fill="none" d="M268.032,230.846c-12.097-4.893-23.647-11.381-36.479-15.896C244.385,219.465,255.941,225.96,268.032,230.846z
		"/>
	<path fill="none" d="M190.018,207.551c-0.059-1.842,1.386-3.384,3.227-3.436l1.055-0.026c4.919,0.01,9.864,1.048,14.706,2.509
		c-4.854-1.465-9.806-2.506-14.725-2.516l-1.054,0.026c-1.841,0.052-3.286,1.601-3.228,3.436c0.045,1.38,0.93,2.538,2.147,3
		C190.942,210.075,190.063,208.924,190.018,207.551z"/>
	<path fill="none" d="M218.552,203.146c6.649-13.086,18.018-22.859,26.197-33.174c2.453-3.064,5.063-7.365,8.102-11.471
		c2.206-2.975,4.658-5.87,7.633-8.181l4.542,4.906c-2.375,1.738-4.653,4.289-6.813,7.224c2.16-2.935,4.438-5.485,6.826-7.217
		l32.3,34.989v-0.007l-32.307-34.995l-4.542-4.906l-6.585-7.132c-0.006,0.004-0.006,0.007-0.013,0.014l6.573,7.118
		c-2.98,2.31-5.44,5.212-7.633,8.18c-3.039,4.119-5.647,8.406-8.108,11.472c-8.172,10.308-19.54,20.081-26.191,33.18
		c-0.962,1.906-1.834,3.865-2.72,5.798c0.007,0,0.013,0.003,0.02,0.007C216.723,207.011,217.582,205.059,218.552,203.146z"/>
	<path fill="none" d="M199.466,185.043c13.047-19.534,32.874-32.529,49.928-46.747l-0.357-0.391l-5.102-5.519l-35.301-38.229h-0.013
		l35.289,38.223c-4.406,1.256-8.616,2.616-12.794,3.318c-2.485,0.43-4.926,0.611-7.365,0.611
		c-11.512,0.053-22.918-4.216-35.939-4.398c-1.834-0.026-3.344,1.458-3.364,3.293c-0.02,1.649,1.184,2.957,2.746,3.25
		c-1.548-0.306-2.739-1.613-2.719-3.243c0.019-1.836,1.529-3.319,3.37-3.293c13.021,0.182,24.428,4.45,35.932,4.398
		c2.44,0,4.887-0.188,7.373-0.611c4.17-0.702,8.374-2.056,12.786-3.313l5.102,5.519c-0.007,0-0.013,0.003-0.013,0.003l0.345,0.381
		c-17.049,14.218-36.882,27.213-49.929,46.747c-1.009,1.535-0.592,3.604,0.944,4.62c0.391,0.257,0.813,0.42,1.243,0.498
		c-0.423-0.082-0.84-0.245-1.217-0.498C198.867,188.647,198.458,186.578,199.466,185.043z"/>
	<rect x="389.929" y="550.455" fill="none" width="0.006" height="15.16"/>
	<path fill="none" d="M300.534,240.757c0,0,0.091-0.358,0.227-0.977c0.879-0.013,1.764-0.039,2.649-0.131
		c3.644-0.357,7.659-1.619,11.328-3.35c-3.669,1.73-7.685,2.992-11.341,3.344c-0.878,0.091-1.764,0.117-2.643,0.137
		c-0.137,0.608-0.227,0.963-0.227,0.963l-12.753,3.325c-0.006,0.007-0.006,0.017-0.013,0.02L300.534,240.757z"/>
	<path fill="none" d="M323.712,229.408c0.585-0.742,1.198-1.588,1.828-2.425l-0.013-0.016l-23.334-32.867
		c0,0.006,0,0.013,0.007,0.02l23.323,32.854C324.91,227.82,324.298,228.666,323.712,229.408z"/>
	<rect x="382.38" y="496.732" fill="none" width="0.006" height="18.323"/>
	<path fill="none" d="M229.333,221.241c-3.202-1.132-6.546-2.459-9.936-3.8l0,0c3.383,1.341,6.722,2.665,9.917,3.794
		c12.116,4.243,23.588,10.658,36.192,15.786c7.841,3.159,16.462,6.96,25.638,8.615c-9.169-1.659-17.777-5.459-25.618-8.615
		C252.922,231.906,241.45,225.484,229.333,221.241z"/>
	<path fill="none" d="M370.7,254.382c5.127,1.133,10.365,1.628,15.532,1.628h0.007c-5.167,0-10.412-0.495-15.526-1.628l5.101-5.896
		c-0.006,0-0.006,0-0.013,0l-5.095,5.89L370.7,254.382z"/>
	<rect x="265.553" y="550.455" fill="none" width="0.005" height="15.16"/>
	<rect x="287.495" y="525.467" fill="none" width="0.007" height="18.741"/>
	<path fill="none" d="M193.271,263.473c4.672-7.782,7.802-18.005,11.55-27.407c2.778-6.938,5.414-13.984,8.348-21.006l-1.581-0.599
		c-0.007-0.003-0.013-0.003-0.02-0.007l1.582,0.6c-2.935,7.014-5.57,14.067-8.349,21.005c-3.741,9.402-6.877,19.625-11.55,27.408
		c-0.943,1.594-0.442,3.637,1.146,4.574c0.046,0.025,0.091,0.025,0.137,0.049c-0.039-0.02-0.078-0.02-0.117-0.043
		C192.842,267.104,192.321,265.055,193.271,263.473z"/>
	<rect x="244.631" y="525.467" fill="none" width="0.007" height="18.748"/>
	<rect x="373.218" y="525.467" fill="none" width="0.007" height="18.748"/>
	<rect x="403.809" y="496.732" fill="none" width="0.007" height="18.323"/>
	<polygon fill="none" points="327.89,230.3 329.588,232.694 329.582,232.704 356.586,270.734 356.593,270.722 329.582,232.681 	"/>
	<path fill="none" d="M397.913,248.526c9.22-1.25,17.693-2.382,24.603-7.21c7.366-5.063,12.286-13.151,18.779-20.543
		c0.612-0.687,1.438-1.061,2.291-1.113c-0.853,0.05-1.691,0.423-2.304,1.113c-6.487,7.392-11.413,15.479-18.779,20.543
		c-6.909,4.828-15.376,5.96-24.603,7.21c-3.774,0.52-7.705,0.819-11.654,0.819h0.006
		C390.202,249.346,394.145,249.046,397.913,248.526z"/>
	<rect x="514.305" y="550.455" fill="none" width="0.007" height="15.16"/>
	<rect x="547.634" y="576.275" fill="none" width="0.007" height="14.159"/>
	<rect x="510.968" y="496.732" fill="none" width="0.006" height="18.323"/>
	<path fill="none" d="M213.789,208.169c-0.541-0.189-1.094-0.354-1.633-0.537C212.695,207.814,213.248,207.979,213.789,208.169
		L213.789,208.169z"/>
	<rect x="480.378" y="525.467" fill="none" width="0.007" height="18.741"/>
	<rect x="501.805" y="525.467" fill="none" width="0.007" height="18.741"/>
	<rect x="535.337" y="497.637" fill="none" width="29.574" height="0.007"/>
	<polygon fill="none" points="117.522,24.474 117.516,24.474 117.516,45.297 117.516,316.824 117.522,316.824 117.522,45.297 	"/>
	<rect x="296.656" y="496.732" fill="none" width="0.006" height="18.323"/>
	<rect x="165.85" y="39.05" fill="none" width="0.007" height="4.997"/>
	<rect x="216.95" y="34.052" fill="none" width="0.007" height="9.995"/>
	<rect x="275.222" y="496.732" fill="none" width="0.006" height="18.323"/>
	<polygon fill="none" points="327.741,155.794 327.734,155.794 327.734,159.125 327.734,205.771 327.741,205.78 327.741,159.125 	
		"/>
	<path fill="none" d="M328.646,233.885c-0.749,0.934-1.575,1.871-2.5,2.785C327.078,235.756,327.897,234.818,328.646,233.885z"/>
	<rect x="624.242" y="57.51" fill="none" width="0.007" height="33.316"/>
	<path fill="none" d="M325.646,237.154c-1.068,0.993-2.297,1.939-3.703,2.802C323.355,239.094,324.578,238.147,325.646,237.154z"/>
	<rect x="327.741" y="550.455" fill="none" width="0.006" height="15.16"/>
	<path fill="none" d="M211.511,214.436c-3.735-1.328-7.431-2.375-10.964-3.02C204.086,212.063,207.775,213.114,211.511,214.436z"/>
	<rect x="351.791" y="525.467" fill="none" width="0.007" height="18.748"/>
	<rect x="472.074" y="576.275" fill="none" width="0.007" height="14.159"/>
	<rect x="447.367" y="576.275" fill="none" width="0.007" height="14.159"/>
	<rect x="538.72" y="212.425" fill="none" width="0.026" height="8.882"/>
	<rect x="458.942" y="525.467" fill="none" width="0.007" height="18.741"/>
	<rect x="169.475" y="57.79" fill="none" width="0.007" height="4.718"/>
	<path fill="none" d="M490.508,89.479c-4.293,2.121-7.762,4.978-10.279,8.033C482.746,94.457,486.222,91.604,490.508,89.479z"/>
	<path fill="none" d="M458.188,267.143c-0.418-0.007-0.944,0.039-1.607,0.163c-4.867,0.872-11.576,4.177-17.107,6.494
		c-2.791,1.132-8.004,4.47-13.835,8.127c-5.875,3.67-12.52,7.697-18.992,10.411c-4.335,1.796-8.59,3.059-12.735,3.071
		c-3.605,0.033-7.302-1.093-10.022-3.872l0.007,0.007c2.727,2.785,6.423,3.911,10.028,3.879c4.145-0.014,8.4-1.275,12.735-3.071
		c6.474-2.721,13.117-6.741,18.993-10.412c5.83-3.656,11.043-6.994,13.834-8.127c5.531-2.316,12.24-5.622,17.114-6.494
		c0.65-0.117,1.184-0.169,1.6-0.163c1.445,0.072,1.641,0.254,2.57,1.113c-0.006-0.004-0.006-0.007-0.006-0.007
		C459.828,267.396,459.639,267.214,458.188,267.143z"/>
	<path fill="none" d="M490.508,89.479c4.681-2.329,9.488-3.437,13.718-3.437C499.996,86.043,495.182,87.15,490.508,89.479z"/>
	<path fill="none" d="M503.224,114.987c8.05-3.976,13.352-10.496,14.511-16.174C516.575,104.491,511.273,111.009,503.224,114.987z"
		/>
	<path fill="none" d="M516.998,92.206c0.652,1.314,0.972,2.72,0.972,4.235C517.97,94.926,517.65,93.515,516.998,92.206z"/>
	<path fill="none" d="M470.467,269.505c0.396,0.394,0.808,0.849,1.185,1.155C471.274,270.351,470.863,269.898,470.467,269.505z"/>
	<path fill="none" d="M276.231,288.57c4.04,0.872,7.125,3.013,9.89,4.764c2.773,1.796,5.2,3.188,7.665,3.527
		c1.698,0.253,3.573,0.409,5.447,0.409c2.74,0,5.5-0.345,7.777-1.125c2.295-0.788,4.046-1.966,5.238-3.586
		c1.289-1.75,2.179-4.51,3.167-7.522c1.029-2.986,2.147-6.345,4.991-8.993c1.888-1.75,4.555-2.901,7.667-3.084l1.02-0.032
		c5.083,0.007,8.753,2.499,11.661,4.496c2.982,2.082,5.317,3.657,7.854,3.871c1.367,0.137,2.466,1.081,2.856,2.324
		c-0.39-1.243-1.489-2.193-2.856-2.33c-2.538-0.215-4.879-1.789-7.854-3.871c-2.908-1.998-6.578-4.49-11.661-4.497l-1.02,0.033
		c-3.105,0.182-5.779,1.334-7.667,3.084c-2.844,2.654-3.962,6.013-4.991,8.986c-0.996,3.02-1.886,5.778-3.167,7.528
		c-1.191,1.62-2.942,2.798-5.238,3.579c-2.278,0.787-5.037,1.132-7.777,1.132c-1.874,0-3.742-0.162-5.447-0.409
		c-2.465-0.333-4.886-1.725-7.665-3.527c-2.765-1.75-5.85-3.892-9.89-4.764c-1.811-0.371-3.566,0.781-3.945,2.577
		c-0.005,0.02,0.007,0.039,0,0.065c0-0.02-0.005-0.032,0-0.052C272.665,289.352,274.42,288.192,276.231,288.57z"/>
	<path fill="none" d="M496.931,228.081c-3.428,1.112-6.91,2.121-9.116,3.194c-1.489,0.683-2.205,1.445-2.186,1.529
		c-0.826,1.646-2.83,2.31-4.471,1.484c-0.41-0.205-0.754-0.485-1.034-0.814c0.285,0.335,0.638,0.618,1.047,0.827
		c1.641,0.826,3.644,0.162,4.471-1.484c-0.02-0.077,0.696-0.839,2.186-1.528c2.207-1.081,5.688-2.083,9.117-3.195l1.125-0.391
		c0-0.007,0.007-0.014,0.007-0.02L496.931,228.081z"/>
	<path fill="none" d="M464.462,272.928c0.13,0.156,0.279,0.253,0.409,0.396C464.741,273.181,464.592,273.084,464.462,272.928
		L464.462,272.928z"/>
	<path fill="none" d="M506.296,218.32L506.296,218.32c0.123,0.098,0.207,0.23,0.311,0.345
		C506.503,218.555,506.426,218.418,506.296,218.32z"/>
	<path fill="none" d="M469.537,268.601c-0.67-0.762-1.249-1.568-1.875-2.401c0.619,0.826,1.198,1.63,1.861,2.388
		C469.53,268.594,469.53,268.594,469.537,268.601z"/>
	<path fill="none" d="M507.226,222.472c-2.721,5.192-3.696,12.116-7.321,18.772c-1.393,2.506-3.253,6.273-5.4,9.924
		c-2.186,3.65-4.529,7.19-7.665,9.54c-1.217,0.891-2.889,0.852-4.066-0.105c-5.604-4.581-12.663-6.436-20.284-6.436
		c-8.511-0.012-17.588,2.376-25.201,5.604c-8.596,3.624-17.322,8.271-26.133,12.188c-8.446,3.735-17.074,6.136-25.168,9.318
		c0.63,2.772,1.606,4.535,2.641,5.569c0,0,0.007,0,0.007,0.007c-1.035-1.041-1.991-2.798-2.635-5.563
		c8.088-3.176,16.722-5.576,25.169-9.318c8.811-3.917,17.537-8.563,26.132-12.188c7.607-3.234,16.691-5.616,25.202-5.603
		c7.621,0,14.681,1.854,20.283,6.436c1.172,0.956,2.844,1.002,4.073,0.104c3.123-2.349,5.473-5.889,7.658-9.539
		c2.154-3.65,4.009-7.418,5.4-9.923c3.626-6.657,4.608-13.58,7.321-18.773c0.547-1.076,0.456-2.336-0.169-3.313
		C507.688,220.148,507.771,221.398,507.226,222.472z"/>
	<path fill="none" d="M474.013,290.731c1.451-0.13,2.883-0.183,4.269-0.183c3.769,0.006,7.288,0.339,10.614,0.339
		c2.181,0,4.269-0.138,6.33-0.548c10.621-2.152,18.865-5.693,26.967-12.598c3.246-2.778,7.757-6.669,12.76-9.936
		c5.017-3.234,10.528-6.007,16.347-6.059c2.726-0.006,5.549,0.703,8.035,2.336c0.196,0.13,0.353,0.349,0.547,0.488
		c-0.194-0.144-0.351-0.364-0.553-0.494c-2.485-1.641-5.311-2.343-8.036-2.336c-5.818,0.052-11.329,2.823-16.347,6.058
		c-5.003,3.267-9.514,7.157-12.76,9.937c-8.102,6.903-16.346,10.451-26.966,12.598c-2.056,0.403-4.15,0.547-6.331,0.547
		c-3.325,0-6.853-0.332-10.614-0.339c-1.385,0-2.816,0.046-4.269,0.183c-1.828,0.175-3.174,1.789-3.011,3.624
		c0.084,0.918,0.533,1.718,1.196,2.258c-0.657-0.546-1.106-1.334-1.19-2.251C470.832,292.527,472.185,290.906,474.013,290.731z"/>
	<path fill="none" d="M557.839,271.685c0.61,0.755,1.223,1.64,1.809,2.778c0.207,0.41,0.493,0.762,0.825,1.042
		c-0.332-0.28-0.611-0.626-0.819-1.035C559.067,273.324,558.449,272.439,557.839,271.685z"/>
	<path fill="none" d="M503.224,114.987c-4.679,2.329-9.487,3.437-13.723,3.437C493.736,118.424,498.552,117.316,503.224,114.987z"/>
	<rect x="142.822" y="34.052" fill="none" width="0.013" height="9.995"/>
	<polygon fill="none" points="184.057,62.508 184.057,62.501 179.431,62.501 175.078,57.784 174.83,57.51 174.804,57.51 
		175.058,57.79 179.418,62.508 	"/>
	<polygon fill="none" points="602.567,305.989 169.481,305.989 169.481,305.996 602.593,305.996 602.593,221.313 602.567,221.313 	
		"/>
	<path fill="none" d="M489.025,86.506c5.107-2.537,10.392-3.78,15.2-3.78c6.892-0.014,13.021,2.583,15.748,7.997h0.007
		c-2.727-5.414-8.863-8.018-15.755-8.004c-4.802,0-10.086,1.236-15.2,3.78c-9.969,5.011-16.515,13.464-16.581,21.526v0.003
		C472.511,99.973,479.057,91.522,489.025,86.506z"/>
	<path fill="none" d="M652.567,471.459c3.684,0,6.663,2.98,6.663,6.663C659.23,474.439,656.257,471.459,652.567,471.459z"/>
	<path fill="none" d="M569.687,235.381c0.267,0.346,0.463,0.742,0.579,1.186c0.476,1.77-0.592,3.598-2.381,4.061
		c-5.349,1.385-9.149,4.229-14.693,7.535c-6.896,4.054-14.85,6.051-21.271,9.064c-12.819,5.974-25.548,11.497-37.878,17.229
		c-5.147,2.369-10.451,4.979-16.314,5.031c-3.461,0.052-7.04-1.094-10.229-3.6c3.195,2.513,6.774,3.664,10.241,3.612
		c5.863-0.053,11.167-2.668,16.321-5.03c12.323-5.732,25.052-11.258,37.871-17.231c6.421-3.012,14.374-5.01,21.277-9.063
		c5.544-3.306,9.337-6.149,14.687-7.535c1.782-0.462,2.851-2.284,2.382-4.061C570.162,236.13,569.96,235.73,569.687,235.381z"/>
	<path fill="none" d="M519.98,90.729c0.89,1.789,1.313,3.737,1.313,5.716v-0.004c0-1.971-0.417-3.923-1.313-5.719h-0.007
		C519.98,90.726,519.98,90.729,519.98,90.729z"/>
	<path fill="#002D5C" d="M176.978,606.676h401.462v-183.24H176.978V606.676z M238.183,590.435h-17.269v-14.159h17.269V590.435z
		 M258.381,525.467h0.006v18.748h-0.006h-13.743h-0.007v-18.748h0.007H258.381z M253.801,515.056v-18.323h13.749v18.323H253.801z
		 M246.109,515.056h-13.743v-18.323h13.743V515.056z M244.827,550.455v15.16h-13.294v-15.16H244.827z M260.242,590.435h-17.27
		v-14.159h17.27V590.435z M265.558,565.615h-0.005h-13.282h-0.006v-15.16h0.006h13.282h0.005V565.615z M266.073,525.467h13.749
		v18.748h-13.749V525.467z M272.989,550.455h13.295v15.16h-13.295V550.455z M437.216,590.435H273.673v-14.159h163.542V590.435z
		 M301.25,544.215h-13.749v-0.007h-0.007v-18.741h0.007h13.742h0.006V544.215z M307.016,550.455v15.16h-13.294v-15.16H307.016z
		 M429.83,525.467v18.748h-13.743v-18.748H429.83z M425.25,515.056v-18.323h13.742v18.323H425.25z M431.393,550.455v15.16h-13.295
		v-15.16H431.393z M417.564,515.056h-0.006h-13.743h-0.007v-18.323h0.007h13.743h0.006V515.056z M408.402,525.467h0.006v18.748
		h-0.006H394.66h-0.006v-18.748h0.006H408.402z M410.666,550.455v15.16h-13.293v-15.16H410.666z M398.31,490.706h-14.991v-14.783
		h14.991V490.706z M396.131,496.732h0.005v18.323h-0.005h-13.744h-0.006v-18.323h0.006H396.131z M389.935,550.455v15.16h-0.006
		h-13.282h-0.006v-15.16h0.006h13.282H389.935z M386.968,525.467h0.006v18.748h-0.006h-13.744h-0.007v-18.748h0.007H386.968z
		 M360.953,515.056v-18.323h13.749v18.323H360.953z M375.112,490.706h-14.993v-14.783h14.993V490.706z M365.54,525.467h0.006v18.748
		h-0.006h-13.742h-0.007v-18.748h0.007H365.54z M369.204,550.455v15.16H355.91v-15.16H369.204z M353.269,515.056h-13.744v-18.323
		h13.744V515.056z M344.106,525.467v18.748h-13.744v-18.748H344.106z M348.472,550.455v15.16h-13.293v-15.16H348.472z
		 M331.833,515.056h-13.742v-18.323h13.742V515.056z M327.747,550.455v15.16h-0.006h-13.282h-0.006v-15.16h0.006h13.282H327.747z
		 M322.677,525.467v18.748h-13.742v-18.748H322.677z M437.521,525.467h13.743v18.748h-13.743V525.467z M438.83,550.455h13.286v15.16
		H438.83V550.455z M464.649,590.435h-0.014h-17.262h-0.007v-14.159h0.007h17.262h0.014V590.435z M472.699,544.215h-13.75v-0.007
		h-0.007v-18.741h0.007h13.744h0.006V544.215z M472.854,550.455v15.16h-13.293v-15.16H472.854z M489.357,590.435h-0.006h-17.271
		h-0.007v-14.159h0.007h17.271h0.006V590.435z M493.58,565.615h-13.294v-15.16h13.294V565.615z M494.133,544.215h-13.748v-0.007
		h-0.007v-18.741h0.007h13.742h0.006V544.215z M489.539,515.056v-18.323h13.75v18.323H489.539z M514.312,590.435h-17.269v-14.159
		h17.269V590.435z M514.312,565.615h-0.007h-13.28h-0.006v-15.16h0.006h13.28h0.007V565.615z M515.562,544.215h-13.75v-0.007h-0.007
		v-18.741h0.007h13.744h0.006V544.215z M536.989,544.215h-13.742v-18.748h13.742V544.215z M564.911,550.948v14.16h-41.664v-14.16
		H564.911z M524.723,515.056h-0.007h-13.742h-0.006v-18.323h0.006h13.742h0.007V515.056z M538.753,590.435h-17.271v-19.573h17.271
		V590.435z M564.918,590.435h-0.007h-17.271h-0.007v-14.159h0.007h17.271h0.007V590.435z M564.957,541.371h-14.16v-25.273h-15.46
		v-18.454v-0.007h29.574v0.007v2.069h0.046V541.371z M564.911,490.395h-41.664v-14.159h41.664V490.395z M549.295,452.172h14.991
		v10.417h-14.991V452.172z M522.642,452.172h14.992v10.417h-14.992V452.172z M499.32,452.172h14.991v10.417H499.32V452.172z
		 M499.32,475.923h14.991v14.783H499.32V475.923z M491.113,490.706h-14.991v-14.783h14.991V490.706z M473.22,452.172h14.993v10.417
		H473.22V452.172z M468.111,496.732h13.749v18.323h-13.749V496.732z M467.909,490.706h-14.991v-14.783h14.991V490.706z
		 M448.513,452.172h14.991v10.417h-14.991V452.172z M446.677,496.732h13.743v18.323h-13.743V496.732z M444.712,490.706h-14.991
		v-14.783h14.991V490.706z M422.133,452.172h14.992v10.417h-14.992V452.172z M421.508,490.706h-14.992v-14.783h14.992V490.706z
		 M396.312,452.172h14.993v10.417h-14.993V452.172z M370.213,452.172h14.991v10.417h-14.991V452.172z M345.329,452.172h14.993
		v10.417h-14.993V452.172z M336.915,475.923h14.993v14.783h-14.993V475.923z M319.509,452.172H334.5v10.417h-14.991V452.172z
		 M313.717,475.923h14.993v14.783h-14.993V475.923z M310.413,496.732v18.323h-0.006h-13.744h-0.006v-18.323h0.006h13.744H310.413z
		 M294.125,452.172h14.993v10.417h-14.993V452.172z M290.513,475.923h14.993v14.783h-14.993V475.923z M288.978,496.732v18.323
		h-0.007h-13.742h-0.006v-18.323h0.006h13.742H288.978z M268.584,452.172h14.992v10.417h-14.992V452.172z M267.316,475.923h14.992
		v14.783h-14.992V475.923z M259.104,490.706h-14.992v-14.783h14.992V490.706z M242.778,452.172h14.992v10.417h-14.992V452.172z
		 M235.906,490.706h-14.992v-14.783h14.992V490.706z M220.289,452.172h14.993v10.417h-14.993V452.172z M194.052,452.172h14.992
		v10.417h-14.992V452.172z M194.052,475.077h14.992v14.783h-14.992V475.077z M194.052,496.732h22.905v20.406h-22.905V496.732z
		 M194.052,523.385H230.7v20.407h-36.648V523.385z M194.052,550.455h22.905v14.158h-22.905V550.455z M194.052,576.275h22.905v14.159
		h-22.905V576.275z"/>
	<rect x="194.052" y="452.172" fill="#FFA400" width="14.992" height="10.417"/>
	<rect x="220.289" y="452.172" fill="#FFA400" width="14.993" height="10.417"/>
	<rect x="242.778" y="452.172" fill="#FFA400" width="14.992" height="10.417"/>
	<rect x="268.584" y="452.172" fill="#FFA400" width="14.992" height="10.417"/>
	<rect x="294.125" y="452.172" fill="#FFA400" width="14.993" height="10.417"/>
	<rect x="319.509" y="452.172" fill="#FFA400" width="14.991" height="10.417"/>
	<rect x="345.329" y="452.172" fill="#FFA400" width="14.993" height="10.417"/>
	<rect x="370.213" y="452.172" fill="#FFA400" width="14.991" height="10.417"/>
	<rect x="396.312" y="452.172" fill="#FFA400" width="14.993" height="10.417"/>
	<rect x="422.133" y="452.172" fill="#FFA400" width="14.992" height="10.417"/>
	<rect x="448.513" y="452.172" fill="#FFA400" width="14.991" height="10.417"/>
	<rect x="473.22" y="452.172" fill="#FFA400" width="14.993" height="10.417"/>
	<rect x="499.32" y="452.172" fill="#FFA400" width="14.991" height="10.417"/>
	<rect x="522.642" y="452.172" fill="#FFA400" width="14.992" height="10.417"/>
	<rect x="549.295" y="452.172" fill="#FFA400" width="14.991" height="10.417"/>
	<rect x="194.052" y="475.077" fill="#FFA400" width="14.992" height="14.783"/>
	<rect x="220.914" y="475.923" fill="#FFA400" width="14.992" height="14.783"/>
	<rect x="244.111" y="475.923" fill="#FFA400" width="14.992" height="14.783"/>
	<rect x="267.316" y="475.923" fill="#FFA400" width="14.992" height="14.783"/>
	<rect x="290.513" y="475.923" fill="#FFA400" width="14.993" height="14.783"/>
	<rect x="313.717" y="475.923" fill="#FFA400" width="14.993" height="14.783"/>
	<rect x="336.915" y="475.923" fill="#FFA400" width="14.993" height="14.783"/>
	<rect x="360.119" y="475.923" fill="#FFA400" width="14.993" height="14.783"/>
	<rect x="383.318" y="475.923" fill="#FFA400" width="14.991" height="14.783"/>
	<rect x="406.516" y="475.923" fill="#FFA400" width="14.992" height="14.783"/>
	<rect x="429.721" y="475.923" fill="#FFA400" width="14.991" height="14.783"/>
	<rect x="452.918" y="475.923" fill="#FFA400" width="14.991" height="14.783"/>
	<rect x="476.122" y="475.923" fill="#FFA400" width="14.991" height="14.783"/>
	<rect x="499.32" y="475.923" fill="#FFA400" width="14.991" height="14.783"/>
	<rect x="194.052" y="496.732" fill="#FFA400" width="22.905" height="20.406"/>
	<rect x="232.366" y="496.732" fill="#FFA400" width="13.743" height="18.323"/>
	<rect x="253.801" y="496.732" fill="#FFA400" width="13.749" height="18.323"/>
	<polygon fill="#FFA400" points="275.229,515.056 288.971,515.056 288.978,515.056 288.978,496.732 288.971,496.732 
		275.229,496.732 	"/>
	<polygon fill="#FFA400" points="296.662,515.056 310.406,515.056 310.413,515.056 310.413,496.732 310.406,496.732 
		296.662,496.732 	"/>
	<rect x="318.091" y="496.732" fill="#FFA400" width="13.742" height="18.323"/>
	<rect x="339.524" y="496.732" fill="#FFA400" width="13.744" height="18.323"/>
	<rect x="360.953" y="496.732" fill="#FFA400" width="13.749" height="18.323"/>
	<polygon fill="#FFA400" points="382.387,515.056 396.131,515.056 396.136,515.056 396.136,496.732 396.131,496.732 
		382.387,496.732 	"/>
	<polygon fill="#FFA400" points="403.815,496.732 403.815,515.056 417.559,515.056 417.564,515.056 417.564,496.732 
		417.559,496.732 	"/>
	<rect x="425.25" y="496.732" fill="#FFA400" width="13.742" height="18.323"/>
	<rect x="446.677" y="496.732" fill="#FFA400" width="13.743" height="18.323"/>
	<rect x="468.111" y="496.732" fill="#FFA400" width="13.749" height="18.323"/>
	<rect x="489.539" y="496.732" fill="#FFA400" width="13.75" height="18.323"/>
	<polygon fill="#FFA400" points="510.974,496.732 510.974,515.056 524.716,515.056 524.723,515.056 524.723,496.732 
		524.716,496.732 	"/>
	<polygon fill="#FFA400" points="244.638,544.215 258.381,544.215 258.388,544.215 258.388,525.467 258.381,525.467 
		244.638,525.467 	"/>
	<rect x="266.073" y="525.467" fill="#FFA400" width="13.749" height="18.748"/>
	<polygon fill="#FFA400" points="287.501,525.467 287.501,544.208 287.501,544.215 301.25,544.215 301.25,525.467 301.244,525.467 	
		"/>
	<rect x="308.935" y="525.467" fill="#FFA400" width="13.742" height="18.748"/>
	<rect x="330.362" y="525.467" fill="#FFA400" width="13.744" height="18.748"/>
	<polygon fill="#FFA400" points="351.797,544.215 365.54,544.215 365.546,544.215 365.546,525.467 365.54,525.467 351.797,525.467 	
		"/>
	<polygon fill="#FFA400" points="373.225,544.215 386.968,544.215 386.975,544.215 386.975,525.467 386.968,525.467 
		373.225,525.467 	"/>
	<polygon fill="#FFA400" points="394.66,544.215 408.402,544.215 408.408,544.215 408.408,525.467 408.402,525.467 394.66,525.467 	
		"/>
	<rect x="416.087" y="525.467" fill="#FFA400" width="13.743" height="18.748"/>
	<rect x="437.521" y="525.467" fill="#FFA400" width="13.743" height="18.748"/>
	<polygon fill="#FFA400" points="458.949,525.467 458.949,544.208 458.949,544.215 472.699,544.215 472.699,525.467 
		472.693,525.467 	"/>
	<polygon fill="#FFA400" points="480.385,525.467 480.385,544.208 480.385,544.215 494.133,544.215 494.133,525.467 
		494.127,525.467 	"/>
	<polygon fill="#FFA400" points="501.812,525.467 501.812,544.208 501.812,544.215 515.562,544.215 515.562,525.467 
		515.556,525.467 	"/>
	<rect x="523.247" y="525.467" fill="#FFA400" width="13.742" height="18.748"/>
	<rect x="231.533" y="550.455" fill="#FFA400" width="13.294" height="15.16"/>
	<polygon fill="#FFA400" points="252.271,550.455 252.265,550.455 252.265,565.615 252.271,565.615 265.553,565.615 
		265.553,550.455 	"/>
	<rect x="272.989" y="550.455" fill="#FFA400" width="13.295" height="15.16"/>
	<rect x="293.722" y="550.455" fill="#FFA400" width="13.294" height="15.16"/>
	<polygon fill="#FFA400" points="314.453,550.455 314.453,565.615 314.459,565.615 327.741,565.615 327.741,550.455 
		314.459,550.455 	"/>
	<rect x="335.179" y="550.455" fill="#FFA400" width="13.293" height="15.16"/>
	<rect x="355.91" y="550.455" fill="#FFA400" width="13.294" height="15.16"/>
	<polygon fill="#FFA400" points="376.641,550.455 376.641,565.615 376.647,565.615 389.929,565.615 389.929,550.455 
		376.647,550.455 	"/>
	<rect x="397.373" y="550.455" fill="#FFA400" width="13.293" height="15.16"/>
	<rect x="418.098" y="550.455" fill="#FFA400" width="13.295" height="15.16"/>
	<rect x="438.83" y="550.455" fill="#FFA400" width="13.286" height="15.16"/>
	<rect x="459.562" y="550.455" fill="#FFA400" width="13.293" height="15.16"/>
	<rect x="480.286" y="550.455" fill="#FFA400" width="13.294" height="15.16"/>
	<polygon fill="#FFA400" points="501.024,550.455 501.019,550.455 501.019,565.615 501.024,565.615 514.305,565.615 
		514.305,550.455 	"/>
	<rect x="194.052" y="550.455" fill="#FFA400" width="22.905" height="14.158"/>
	<rect x="194.052" y="576.275" fill="#FFA400" width="22.905" height="14.159"/>
	<rect x="220.914" y="576.275" fill="#FFA400" width="17.269" height="14.159"/>
	<rect x="242.973" y="576.275" fill="#FFA400" width="17.27" height="14.159"/>
	<polygon fill="#FFA400" points="472.081,576.275 472.081,590.435 489.352,590.435 489.357,590.435 489.357,576.275 
		489.352,576.275 	"/>
	<rect x="497.043" y="576.275" fill="#FFA400" width="17.269" height="14.159"/>
	<polygon fill="#FFA400" points="547.641,576.275 547.641,590.435 564.911,590.435 564.918,590.435 564.918,576.275 
		564.911,576.275 	"/>
	<rect x="523.247" y="550.948" fill="#FFA400" width="41.664" height="14.16"/>
	<polygon fill="#FFA400" points="564.911,497.644 535.337,497.644 535.337,516.098 550.797,516.098 550.797,541.371 
		564.957,541.371 564.957,499.713 564.911,499.713 	"/>
	<rect x="523.247" y="476.235" fill="#FFA400" width="41.664" height="14.159"/>
	<rect x="521.482" y="570.861" fill="#FFA400" width="17.271" height="19.573"/>
	<polygon fill="#FFA400" points="447.374,576.275 447.374,590.435 464.636,590.435 464.649,590.435 464.649,576.275 
		464.636,576.275 	"/>
	<rect x="273.673" y="576.275" fill="#FFA400" width="163.542" height="14.159"/>
	<rect x="194.052" y="523.385" fill="#FFA400" width="36.648" height="20.407"/>
	<path fill="#002D5C" d="M659.446,468.426c0.176-6.923,0.396-17.464,0.396-27.329c-0.007-8.29-0.143-15.994-0.644-21.096
		c-0.625-6.749-2.07-13.958-7.041-21.369c-4.926-7.432-12.819-15.019-26.151-24.961l-0.372-0.248v-0.007l-0.644-0.487
		c-1.518-1.224-5.395-4.79-8.94-11.83c-2.89-5.746-5.551-13.905-6.449-25.117h54.613V5.317H101.678v330.664h230.715v30.922H259.09
		v23.217h73.302H433.5h73.303v-23.217H433.5v-30.922h162.71c1.146,16.229,5.661,27.824,10.412,35.555
		c4.951,8.055,10.013,11.869,11.471,12.864c12.722,9.468,19.451,16.261,22.944,21.584c3.462,5.336,4.242,9.227,4.888,15.33
		c0.416,4.061,0.586,11.72,0.579,19.788c0,8.108-0.149,16.775-0.306,23.399c-0.033,1.394-0.066,2.669-0.091,3.866
		c-17.772,3.058-31.308,18.519-31.308,37.168v63.379c0,20.862,16.907,37.768,37.755,37.768c20.869,0,37.768-16.905,37.768-37.768
		v-63.379C690.335,487.023,677.015,471.654,659.446,468.426z M117.522,316.824h-0.006V45.297V24.474h0.006h530.875h0.007v20.823
		v271.527h-0.007H117.522z M659.23,508.106c0,3.684-2.974,6.663-6.663,6.663c-3.683,0-6.662-2.979-6.662-6.663v-29.984
		c0-3.683,2.979-6.663,6.662-6.663c3.689,0,6.663,2.98,6.663,6.663V508.106z"/>
	<path fill="#FFA400" d="M652.567,471.459c-3.683,0-6.662,2.98-6.662,6.663v29.984c0,3.684,2.979,6.663,6.662,6.663
		c3.689,0,6.663-2.979,6.663-6.663v-29.984C659.23,474.439,656.251,471.459,652.567,471.459z"/>
	<path fill="#55565A" d="M648.403,45.297V24.474h-0.007H117.522v20.823H648.403z M478.327,34.052h22.235v9.995h-22.235V34.052z
		 M413.536,34.052h14.147v9.995h-14.147V34.052z M345.479,34.052h22.235v9.995h-22.235V34.052z M297.333,34.052h37.48v9.995h-37.48
		V34.052z M245.692,34.052h37.481v9.995h-37.481V34.052z M216.95,34.052h0.007h17.908h0.006v9.995h-0.006h-17.908h-0.007V34.052z
		 M165.85,39.05h0.007h17.888h0.007v4.997h-0.007h-17.888h-0.007V39.05z M142.822,34.052h0.013h17.9h0.006v9.995h-0.006h-17.9
		h-0.013V34.052z"/>
	<path fill="#77777A" d="M648.403,316.824V45.297H117.522v271.527h530.875H648.403z M128.773,273.37h-8.127v-17.218h8.127V273.37z
		 M128.773,240.86h-8.127v-17.211h8.127V240.86z M128.773,208.357h-8.127v-17.211h8.127V208.357z M128.773,175.854h-8.127v-17.217
		h8.127V175.854z M128.773,143.345h-8.127v-17.218h8.127V143.345z M128.773,110.836h-8.127V93.625h8.127V110.836z M128.773,78.333
		h-8.127V61.122h8.127V78.333z M643.595,105.266v93.286v22.762h-3.233v78.293h-16.112v-78.293h-21.656v84.683H169.481v-0.007h-0.026
		V94.158h-1.008h-0.007h-6.657h-0.012h-9.357h-0.007h-6.656h-0.007h-10.691V65.839v-3.331h10.691h0.007h6.656h0.007h9.357h0.012
		h6.657h0.007h1.027V57.79h0.007h5.577l-0.254-0.28h0.026l-0.006-0.007h170.667l-0.033,0.281c0,0.002,0,0.002,0,0.006h257.128h0.006
		v33.036h21.649V57.51h0.007h16.105h0.007v33.316h3.227h0.007V105.266z"/>
	<path fill="#FFFFFF" d="M258.212,162.45c-2.812,3.794-5.395,8.088-8.251,11.674c-8.758,10.926-19.684,20.497-25.443,32.015
		c-0.859,1.705-1.633,3.455-2.427,5.186c3.319,1.321,6.526,2.597,9.461,3.625c12.833,4.516,24.383,11.004,36.479,15.896
		c7.373,3.014,15.025,6.244,22.586,7.877c0.006-0.003,0.006-0.006,0.006-0.009c5.355-14.636,6.714-48.43,6.714-48.491l-32.3-34.989
		C262.65,156.965,260.372,159.516,258.212,162.45z"/>
	<path fill="#FFFFFF" d="M314.739,236.3c1.225-0.579,2.408-1.212,3.533-1.875c2.317-1.373,3.852-2.986,5.44-5.017
		c0.585-0.742,1.198-1.588,1.81-2.435L302.2,194.12c3.925,19.645-0.396,40.988-1.445,45.647c0,0.007,0,0.007,0,0.013
		c0.878-0.02,1.764-0.046,2.643-0.137C307.054,239.292,311.069,238.03,314.739,236.3z"/>
	<path fill="#FFFFFF" d="M489.501,118.424c4.235,0,9.044-1.107,13.723-3.437c8.05-3.979,13.352-10.496,14.511-16.174
		c0.163-0.81,0.241-1.604,0.235-2.372c0-1.516-0.319-2.921-0.972-4.235c-1.912-3.872-6.63-6.156-12.772-6.163
		c-4.229,0-9.037,1.107-13.718,3.437c-4.286,2.124-7.762,4.978-10.279,8.033c-2.87,3.487-4.491,7.239-4.458,10.513
		c0,1.509,0.319,2.928,0.969,4.242C478.646,116.133,483.358,118.417,489.501,118.424z"/>
	
		<line fill="none" stroke="#FFFFFF" stroke-width="0" stroke-linecap="round" stroke-linejoin="round" x1="519.98" y1="90.723" x2="519.974" y2="90.723"/>
	<path fill="#FFFFFF" d="M602.567,221.313h-63.821v-0.007h-0.026v-8.882h-86.323v-88.562h86.35v-18.598V90.826h63.841h0.006V57.79
		h-0.006H345.458c-0.507,5.675-1.782,12.165-3.467,18.87c0,0.004,0,0.004,0,0.007H446h0.007l1.185,0.488l0.48,1.178v79.126
		l-0.48,1.179l-1.185,0.487H446h-6.65v52.193h-0.006h-28.318h-0.007h-79.075c19.587,23.406,51.016,28.872,51.016,28.872l-7.151,8.29
		l-0.007,0.006c0.007,0,0.007,0,0.013,0l0,0c3.43,0.527,6.925,0.859,10.432,0.859c3.949,0,7.88-0.3,11.654-0.819
		c9.227-1.25,17.693-2.382,24.603-7.21c7.366-5.063,12.292-13.151,18.779-20.543c0.612-0.69,1.451-1.063,2.304-1.113
		c0.853-0.052,1.725,0.222,2.414,0.834c1.374,1.216,1.511,3.318,0.28,4.697c-5.98,6.689-11.128,15.402-19.97,21.597
		c-8.669,5.987-18.408,7.061-27.492,8.336c-4.048,0.56-8.277,0.886-12.572,0.886h-0.007h-0.007c-5.167,0-10.405-0.495-15.532-1.628
		l-14.101,16.347l-0.006-0.007l-0.007,0.013l-27.004-38.03l-0.612,0.816c-0.097,0.124-0.227,0.244-0.324,0.364
		c-0.749,0.934-1.568,1.871-2.5,2.785c-0.169,0.163-0.333,0.322-0.5,0.484c-1.068,0.993-2.291,1.939-3.703,2.802
		c-0.105,0.064-0.169,0.149-0.28,0.215c-5.2,3.059-11.414,5.485-17.596,6.123c-1.373,0.123-2.745,0.195-4.106,0.195
		c-2.993-0.007-5.934-0.332-8.817-0.853c-9.176-1.655-17.797-5.456-25.638-8.615c-12.604-5.128-24.076-11.543-36.192-15.786
		c-3.195-1.129-6.534-2.453-9.917-3.794c-2.896,6.898-5.538,13.978-8.388,21.096c-3.624,9.039-6.761,19.542-12.019,28.358
		c-0.924,1.542-2.89,2.053-4.458,1.194c-0.045-0.023-0.091-0.023-0.137-0.049c-1.587-0.938-2.089-2.98-1.146-4.574
		c4.673-7.783,7.809-18.006,11.55-27.408c2.779-6.938,5.414-13.991,8.349-21.005l-1.582-0.6c-0.02-0.006-0.04-0.012-0.059-0.019
		c-3.735-1.321-7.425-2.372-10.964-3.02c-2.147-0.39-4.255-0.667-6.241-0.664l-0.846,0.013c-0.462,0.017-0.904-0.064-1.314-0.221
		c-1.217-0.462-2.103-1.62-2.147-3c-0.059-1.835,1.386-3.384,3.228-3.436l1.054-0.026c4.919,0.01,9.871,1.051,14.725,2.516
		c1.054,0.318,2.102,0.68,3.15,1.034c0.54,0.183,1.093,0.348,1.633,0.537l0,0c0.006,0.004,0.013,0.004,0.019,0.007
		c0.69,0.237,1.328,0.507,2.004,0.768c0.886-1.933,1.758-3.892,2.72-5.798c6.651-13.099,18.019-22.872,26.191-33.18
		c2.46-3.065,5.069-7.353,8.108-11.472c2.193-2.968,4.653-5.87,7.633-8.18l-6.573-7.118c-17.511,14.666-36.888,27.368-48.868,45.529
		c-0.761,1.152-2.121,1.672-3.396,1.436c-0.43-0.078-0.853-0.241-1.243-0.498c-1.536-1.016-1.953-3.085-0.944-4.62
		c13.047-19.534,32.88-32.529,49.929-46.747l-0.345-0.381c-5.304,1.376-10.737,3.315-16.75,4.362
		c-2.902,0.495-5.739,0.704-8.505,0.704c-13.072-0.066-24.505-4.347-35.997-4.399c-0.208-0.004-0.383-0.088-0.579-0.127
		c-1.562-0.293-2.765-1.601-2.746-3.25c0.02-1.835,1.53-3.319,3.364-3.293c13.021,0.183,24.427,4.451,35.939,4.398
		c2.439,0,4.88-0.182,7.365-0.611c4.178-0.702,8.388-2.063,12.794-3.318l-35.289-38.223h-1.034h-6.663h-10.204h-6.664h-14.576
		h-0.007h-0.019v211.831h0.026h433.086V221.313z M472.444,108.025c0.066-8.063,6.612-16.516,16.581-21.526
		c5.114-2.544,10.398-3.78,15.2-3.78c6.892-0.014,13.028,2.59,15.755,8.004c0.896,1.796,1.313,3.748,1.313,5.719v0.004v0.003
		c-0.071,8.056-6.61,16.516-16.586,21.526c-5.108,2.537-10.393,3.78-15.207,3.78c-6.885,0.014-13.021-2.597-15.741-7.997
		c-0.899-1.797-1.315-3.748-1.315-5.727v-0.003V108.025z M347.958,287.939c-4.808-0.501-8.147-3.11-10.971-5.023
		c-2.896-1.997-5.141-3.332-7.888-3.319l-0.585,0.021c-1.879,0.149-2.791,0.631-3.617,1.359c-0.813,0.729-1.529,1.913-2.2,3.533
		c-1.385,3.208-2.172,7.854-5.048,11.94c-2.174,3.02-5.264,4.9-8.486,5.993c-3.227,1.101-6.656,1.483-9.923,1.49
		c-2.238,0-4.405-0.182-6.396-0.468c-4.242-0.625-7.482-2.721-10.313-4.517c-2.832-1.835-5.297-3.377-7.667-3.853
		c-1.789-0.377-2.928-2.107-2.577-3.891c0.007-0.026-0.005-0.046,0-0.065c0.378-1.796,2.134-2.948,3.945-2.577
		c4.04,0.872,7.125,3.014,9.89,4.764c2.779,1.803,5.2,3.194,7.665,3.527c1.705,0.247,3.573,0.409,5.447,0.409
		c2.74,0,5.5-0.345,7.777-1.132c2.295-0.781,4.046-1.959,5.238-3.579c1.282-1.75,2.172-4.509,3.167-7.528
		c1.029-2.974,2.147-6.332,4.991-8.986c1.888-1.75,4.562-2.902,7.667-3.084l1.02-0.033c5.083,0.007,8.753,2.499,11.661,4.497
		c2.975,2.082,5.317,3.656,7.854,3.871c1.367,0.137,2.466,1.087,2.856,2.33c0.13,0.416,0.183,0.865,0.137,1.327
		C351.427,286.774,349.793,288.115,347.958,287.939z M564.136,275.928c-1.229,0.631-2.674,0.416-3.663-0.423
		c-0.332-0.28-0.618-0.632-0.825-1.042c-0.586-1.139-1.198-2.023-1.809-2.778c-0.716-0.871-1.438-1.556-2.154-2.023
		c-1.335-0.872-2.714-1.236-4.381-1.25c-3.5-0.038-8.211,2.005-12.707,4.978c-4.511,2.936-8.823,6.645-12.07,9.416
		c-8.974,7.692-18.618,11.811-29.999,14.063c-2.628,0.533-5.179,0.684-7.632,0.684c-3.749-0.007-7.262-0.345-10.614-0.339
		c-1.242,0-2.452,0.046-3.656,0.156c-0.917,0.091-1.775-0.209-2.434-0.762c-0.663-0.54-1.112-1.34-1.196-2.258
		c-0.163-1.835,1.183-3.449,3.011-3.624c1.452-0.137,2.884-0.183,4.269-0.183c3.762,0.007,7.289,0.339,10.614,0.339
		c2.181,0,4.275-0.144,6.331-0.547c10.62-2.146,18.864-5.694,26.966-12.598c3.246-2.779,7.757-6.67,12.76-9.937
		c5.018-3.234,10.528-6.006,16.347-6.058c2.726-0.007,5.551,0.695,8.036,2.336c0.202,0.13,0.358,0.351,0.553,0.494
		c2.239,1.627,4.171,3.879,5.707,6.878C566.427,273.084,565.771,275.094,564.136,275.928z M567.897,240.64
		c-5.35,1.386-9.143,4.229-14.687,7.535c-6.903,4.054-14.856,6.052-21.277,9.063c-12.819,5.974-25.548,11.499-37.871,17.231
		c-5.154,2.362-10.458,4.978-16.321,5.03c-3.467,0.052-7.046-1.1-10.241-3.612c-0.917-0.722-1.782-1.613-2.629-2.563
		c-0.13-0.144-0.279-0.24-0.409-0.396l0,0c-0.007-0.007-0.007-0.007-0.014-0.014c-1.704-2.007-2.799-3.768-3.678-4.646
		c-0.93-0.859-1.125-1.041-2.57-1.113c-0.416-0.006-0.949,0.046-1.6,0.163c-4.874,0.872-11.583,4.178-17.114,6.494
		c-2.791,1.133-8.004,4.471-13.834,8.127c-5.876,3.671-12.52,7.691-18.993,10.412c-4.335,1.796-8.59,3.058-12.735,3.071
		c-3.605,0.032-7.302-1.094-10.028-3.879l-0.007-0.007l-0.005-0.006c-2.727-2.759-4.328-6.755-4.984-11.947
		c-0.189-1.471,0.637-2.902,2.009-3.488c9.39-3.949,18.917-6.402,27.525-10.222c8.511-3.781,17.271-8.459,26.251-12.253
		c8.25-3.475,18.057-6.11,27.79-6.117c7.725-0.013,15.416,1.849,22.034,6.3c1.359-1.491,2.875-3.657,4.249-6.026
		c1.991-3.37,3.786-7.027,5.304-9.773c1.718-2.999,2.784-6.565,4.007-10.301l-1.125,0.391c-3.43,1.112-6.91,2.114-9.117,3.195
		c-1.489,0.689-2.205,1.451-2.186,1.528c-0.827,1.646-2.83,2.311-4.471,1.484c-0.409-0.209-0.762-0.492-1.047-0.827
		c-0.847-0.992-1.067-2.431-0.442-3.663c0.903-1.764,2.303-2.863,3.734-3.735c1.458-0.865,3.052-1.522,4.711-2.121
		c3.319-1.197,6.962-2.174,9.813-3.279c1.894-0.729,3.396-1.549,4.074-2.187c1.19-1.08,2.987-1.151,4.269-0.183
		c0.007,0.003,0.007,0.01,0.014,0.014l0,0c0.13,0.098,0.207,0.234,0.311,0.345c0.163,0.166,0.346,0.319,0.463,0.507
		c0.625,0.977,0.716,2.236,0.169,3.313c-2.713,5.193-3.695,12.116-7.321,18.773c-1.392,2.505-3.246,6.272-5.4,9.923
		c-2.186,3.65-4.535,7.19-7.658,9.539c-1.229,0.898-2.901,0.853-4.073-0.104c-5.603-4.581-12.662-6.436-20.283-6.436
		c-8.511-0.014-17.595,2.368-25.202,5.603c-8.595,3.625-17.321,8.271-26.132,12.188c-8.447,3.742-17.081,6.143-25.169,9.318
		c0.644,2.766,1.6,4.522,2.635,5.563c1.321,1.295,2.883,1.867,5.291,1.894c4.08,0.046,10.066-2.18,16.131-5.407
		c6.097-3.188,12.337-7.262,17.634-10.555c3.553-2.199,6.61-4.034,9.246-5.134c5.252-2.147,12.084-5.681,18.454-6.885
		c0.989-0.183,1.914-0.279,2.817-0.286c3.137-0.064,5.818,1.445,7.374,3.169c0.806,0.862,1.463,1.718,2.081,2.551
		c0.626,0.833,1.205,1.64,1.875,2.401c0.325,0.364,0.618,0.595,0.93,0.904c0.396,0.394,0.808,0.846,1.185,1.155
		c2.057,1.649,3.93,2.124,6.09,2.176c3.663,0.052,8.375-1.984,13.502-4.398c12.43-5.791,25.158-11.315,37.865-17.244
		c7.218-3.331,14.986-5.336,20.687-8.759c5.121-3.005,9.611-6.454,16.411-8.25c1.333-0.352,2.694,0.162,3.48,1.196
		c0.273,0.35,0.476,0.749,0.593,1.198C570.748,238.355,569.68,240.178,567.897,240.64z"/>
	<polygon fill="#FFFFFF" points="179.418,62.508 175.058,57.79 169.481,57.79 169.481,62.508 	"/>
	<path fill="#FFFFFF" d="M317.056,159.125c-1.821,19.915,2.947,35.128,10.678,46.646v-46.646H317.056z"/>
	<path fill="#FFFFFF" d="M327.741,155.794v-12.215h83.285h28.324v12.215h4.991V79.998H341.152
		c-6.403,23.875-17.296,49.136-17.296,49.136c-3.396,9.702-5.427,18.532-6.442,26.653c0,0.003,0,0.003,0,0.007h10.321H327.741z"/>
	<rect x="457.394" y="128.86" fill="#FFFFFF" width="78.854" height="78.566"/>
	<path fill="#002D5C" d="M452.396,123.863v88.562h86.323h0.026v-2.499v-2.499v-8.875v-74.688H452.396z M536.247,207.427h-78.854
		V128.86h78.854V207.427z"/>
	<path fill="#002D5C" d="M327.89,230.3l-2.35-3.316c-0.63,0.837-1.243,1.683-1.828,2.425c-1.588,2.03-3.124,3.644-5.44,5.017
		c-1.125,0.663-2.309,1.296-3.533,1.875c-3.669,1.73-7.685,2.992-11.328,3.35c-0.885,0.092-1.771,0.118-2.649,0.131
		c-0.136,0.618-0.227,0.977-0.227,0.977l-12.773,3.331c0.007-0.003,0.007-0.013,0.013-0.02l-0.02,0.007
		c1.066-1.136,2.011-3.025,2.863-5.353c-7.562-1.633-15.207-4.857-22.586-7.877c-12.09-4.886-23.647-11.381-36.479-15.896
		c-2.935-1.028-6.142-2.304-9.461-3.625c0.794-1.73,1.568-3.48,2.427-5.186c5.759-11.518,16.685-21.089,25.443-32.015
		c2.856-3.586,5.439-7.88,8.251-11.674c2.16-2.935,4.438-5.485,6.813-7.224l-4.542-4.906c-2.975,2.311-5.427,5.206-7.633,8.181
		c-3.039,4.105-5.648,8.406-8.102,11.471c-8.179,10.314-19.548,20.088-26.197,33.174c-0.97,1.913-1.829,3.865-2.72,5.805
		c-0.007-0.004-0.013-0.007-0.02-0.007c-0.676-0.261-1.314-0.53-2.004-0.768c-0.006-0.003-0.013-0.003-0.019-0.007
		c-0.541-0.189-1.094-0.354-1.633-0.537c-1.048-0.354-2.096-0.716-3.15-1.034c-4.841-1.461-9.787-2.499-14.706-2.509l-1.055,0.026
		c-1.841,0.052-3.286,1.594-3.227,3.436c0.045,1.373,0.924,2.524,2.128,2.993c0.41,0.156,0.852,0.237,1.314,0.221l0.846-0.013
		c1.985-0.003,4.093,0.274,6.241,0.664c3.533,0.645,7.229,1.691,10.964,3.02c0.019,0.007,0.039,0.013,0.059,0.019
		c0.007,0.004,0.013,0.004,0.02,0.007l1.581,0.599c-2.934,7.021-5.57,14.068-8.348,21.006c-3.749,9.402-6.878,19.625-11.55,27.407
		c-0.95,1.582-0.43,3.631,1.145,4.574c0.039,0.023,0.079,0.023,0.117,0.043c1.568,0.858,3.534,0.348,4.458-1.194
		c5.258-8.816,8.395-19.319,12.019-28.358c2.85-7.118,5.492-14.197,8.388-21.096l0,0c3.39,1.341,6.734,2.668,9.936,3.8
		c12.116,4.243,23.588,10.665,36.193,15.78c7.841,3.156,16.449,6.956,25.618,8.615c2.883,0.521,5.824,0.846,8.817,0.853
		c1.361,0,2.733-0.072,4.106-0.195c6.183-0.638,12.396-3.064,17.596-6.123c0.11-0.065,0.174-0.15,0.28-0.215
		c1.405-0.862,2.634-1.809,3.703-2.802c0.167-0.162,0.331-0.321,0.5-0.484c0.925-0.914,1.751-1.852,2.5-2.785
		c0.097-0.12,0.227-0.24,0.324-0.364l0.612-0.816l0.006-0.01L327.89,230.3z"/>
	<path fill="#002D5C" d="M348.608,281.295c-2.538-0.214-4.873-1.789-7.854-3.871c-2.908-1.997-6.578-4.489-11.661-4.496l-1.02,0.032
		c-3.112,0.183-5.779,1.334-7.667,3.084c-2.844,2.648-3.962,6.007-4.991,8.993c-0.989,3.013-1.879,5.772-3.167,7.522
		c-1.191,1.62-2.942,2.798-5.238,3.586c-2.278,0.78-5.037,1.125-7.777,1.125c-1.874,0-3.749-0.156-5.447-0.409
		c-2.465-0.34-4.892-1.731-7.665-3.527c-2.765-1.751-5.85-3.892-9.89-4.764c-1.811-0.378-3.566,0.781-3.945,2.584
		c-0.005,0.02,0,0.032,0,0.052c-0.351,1.783,0.789,3.514,2.577,3.891c2.37,0.476,4.834,2.018,7.667,3.853
		c2.831,1.796,6.071,3.892,10.313,4.517c1.991,0.286,4.158,0.468,6.396,0.468c3.267-0.007,6.696-0.39,9.923-1.49
		c3.222-1.093,6.313-2.974,8.486-5.993c2.876-4.086,3.663-8.732,5.048-11.94c0.671-1.62,1.387-2.804,2.2-3.533
		c0.826-0.729,1.738-1.21,3.617-1.359l0.585-0.021c2.747-0.013,4.991,1.322,7.888,3.319c2.824,1.913,6.163,4.522,10.971,5.023
		c1.835,0.176,3.469-1.165,3.644-2.993c0.046-0.462-0.007-0.911-0.137-1.327C351.075,282.376,349.976,281.432,348.608,281.295z"/>
	<path fill="#002D5C" d="M341.152,79.998h103.189v75.796h-4.991v3.331H446h0.007l1.185-0.487l0.48-1.179V78.333l-0.48-1.178
		l-1.185-0.488H446H341.991c-0.28,1.11-0.54,2.209-0.839,3.325C341.152,79.995,341.152,79.995,341.152,79.998z"/>
	<path fill="#002D5C" d="M327.734,155.794h-10.321c-0.143,1.122-0.26,2.228-0.357,3.324c0,0.004,0,0.004,0,0.007h10.678V155.794z"/>
	
		<line fill="none" stroke="#002D5C" stroke-width="0" stroke-linecap="round" stroke-linejoin="round" x1="327.734" y1="155.794" x2="327.741" y2="155.794"/>
	<path fill="#002D5C" d="M473.76,113.758c2.72,5.4,8.856,8.011,15.741,7.997c4.814,0,10.099-1.243,15.207-3.78
		c9.976-5.011,16.515-13.471,16.586-21.526v-0.003c0-1.979-0.424-3.927-1.313-5.716c0,0,0-0.004-0.007-0.007
		c-2.727-5.414-8.856-8.011-15.748-7.997c-4.809,0-10.093,1.243-15.2,3.78c-9.969,5.017-16.515,13.467-16.581,21.522v0.003
		C472.444,110.01,472.86,111.961,473.76,113.758z M480.229,97.513c2.518-3.056,5.986-5.912,10.279-8.033
		c4.674-2.329,9.488-3.437,13.718-3.437c6.143,0.007,10.86,2.291,12.772,6.163c0.652,1.309,0.972,2.72,0.972,4.235
		c0.006,0.769-0.072,1.563-0.235,2.372c-1.159,5.678-6.461,12.198-14.511,16.174c-4.672,2.329-9.487,3.437-13.723,3.437
		c-6.143-0.007-10.854-2.291-12.762-6.156c-0.649-1.314-0.969-2.733-0.969-4.242C475.737,104.752,477.358,101,480.229,97.513z"/>
	<path fill="#002D5C" d="M494.043,274.456c12.33-5.732,25.059-11.256,37.878-17.229c6.421-3.014,14.374-5.011,21.271-9.064
		c5.544-3.307,9.345-6.15,14.693-7.535c1.789-0.463,2.856-2.291,2.381-4.061c-0.116-0.443-0.313-0.84-0.579-1.186
		c-0.786-1.034-2.147-1.548-3.48-1.196c-6.8,1.796-11.29,5.245-16.411,8.25c-5.7,3.423-13.469,5.428-20.687,8.759
		c-12.707,5.929-25.436,11.453-37.865,17.244c-5.127,2.414-9.839,4.45-13.502,4.398c-2.16-0.052-4.033-0.526-6.09-2.176
		c-0.377-0.307-0.788-0.762-1.185-1.155c-0.312-0.31-0.604-0.54-0.93-0.904c-0.007-0.007-0.007-0.007-0.014-0.014
		c-0.663-0.758-1.242-1.562-1.861-2.388c-0.618-0.833-1.275-1.688-2.081-2.551c-1.556-1.724-4.237-3.233-7.374-3.169
		c-0.903,0.007-1.828,0.104-2.817,0.286c-6.37,1.204-13.202,4.737-18.454,6.885c-2.636,1.1-5.693,2.935-9.246,5.134
		c-5.297,3.293-11.537,7.366-17.634,10.555c-6.065,3.228-12.052,5.453-16.131,5.407c-2.408-0.026-3.969-0.599-5.291-1.894
		c0-0.007-0.007-0.007-0.007-0.007c-1.035-1.034-2.011-2.797-2.641-5.569c8.095-3.183,16.722-5.583,25.168-9.318
		c8.811-3.917,17.537-8.563,26.133-12.188c7.613-3.228,16.69-5.615,25.201-5.604c7.621,0,14.681,1.854,20.284,6.436
		c1.178,0.957,2.85,0.996,4.066,0.105c3.136-2.35,5.479-5.89,7.665-9.54c2.147-3.65,4.008-7.418,5.4-9.924
		c3.625-6.656,4.601-13.58,7.321-18.772c0.546-1.073,0.462-2.323-0.156-3.3c-0.117-0.188-0.3-0.341-0.463-0.507
		c-0.104-0.114-0.188-0.247-0.311-0.345c-0.007-0.004-0.007-0.011-0.014-0.014c-1.281-0.969-3.078-0.897-4.269,0.183
		c-0.678,0.638-2.181,1.457-4.074,2.187c-2.851,1.105-6.493,2.082-9.813,3.279c-1.659,0.599-3.253,1.256-4.711,2.121
		c-1.432,0.872-2.831,1.972-3.734,3.735c-0.625,1.232-0.404,2.671,0.442,3.663c0.28,0.329,0.624,0.609,1.034,0.814
		c1.641,0.825,3.645,0.161,4.471-1.484c-0.02-0.084,0.696-0.847,2.186-1.529c2.206-1.073,5.688-2.082,9.116-3.194l1.146-0.397
		c0,0.006-0.007,0.013-0.007,0.02c-1.223,3.735-2.289,7.302-4.007,10.301c-1.518,2.746-3.313,6.403-5.304,9.773
		c-1.374,2.369-2.89,4.535-4.249,6.026c-6.618-4.451-14.31-6.313-22.034-6.3c-9.733,0.007-19.54,2.643-27.79,6.117
		c-8.98,3.794-17.74,8.472-26.251,12.253c-8.608,3.819-18.136,6.272-27.525,10.222c-1.373,0.586-2.198,2.018-2.009,3.488
		c0.657,5.192,2.258,9.188,4.984,11.947l0.005,0.006c2.72,2.779,6.417,3.905,10.022,3.872c4.146-0.013,8.4-1.275,12.735-3.071
		c6.473-2.714,13.117-6.741,18.992-10.411c5.831-3.657,11.044-6.995,13.835-8.127c5.531-2.317,12.24-5.622,17.107-6.494
		c0.663-0.124,1.189-0.17,1.607-0.163c1.45,0.071,1.64,0.254,2.576,1.119c0,0,0,0.003,0.006,0.007
		c0.879,0.878,1.974,2.639,3.678,4.646c0.007,0.007,0.007,0.007,0.014,0.014c0.13,0.156,0.279,0.253,0.409,0.396
		c0.847,0.95,1.712,1.842,2.629,2.563c3.188,2.506,6.768,3.651,10.229,3.6C483.592,279.435,488.896,276.825,494.043,274.456z"/>
	<path fill="#002D5C" d="M559.881,264.572c-0.194-0.14-0.351-0.358-0.547-0.488c-2.486-1.633-5.31-2.342-8.035-2.336
		c-5.818,0.052-11.33,2.824-16.347,6.059c-5.003,3.267-9.514,7.157-12.76,9.936c-8.102,6.904-16.346,10.445-26.967,12.598
		c-2.062,0.41-4.149,0.548-6.33,0.548c-3.326,0-6.846-0.333-10.614-0.339c-1.386,0-2.817,0.053-4.269,0.183
		c-1.828,0.175-3.181,1.796-3.012,3.624c0.084,0.917,0.533,1.705,1.19,2.251c0.658,0.553,1.517,0.853,2.434,0.762
		c1.204-0.11,2.414-0.156,3.656-0.156c3.353-0.006,6.865,0.332,10.614,0.339c2.453,0,5.004-0.15,7.632-0.684
		c11.381-2.252,21.025-6.37,29.999-14.063c3.247-2.771,7.56-6.48,12.07-9.416c4.496-2.973,9.207-5.016,12.707-4.978
		c1.667,0.014,3.046,0.378,4.381,1.25c0.716,0.468,1.438,1.152,2.154,2.023c0.61,0.755,1.229,1.64,1.814,2.785
		c0.208,0.409,0.487,0.755,0.819,1.035c0.989,0.839,2.435,1.054,3.663,0.423c1.635-0.834,2.291-2.844,1.452-4.478
		C564.052,268.451,562.12,266.199,559.881,264.572z"/>
	<path fill="#002D5C" d="M386.239,256.01h0.007c4.295,0,8.524-0.326,12.572-0.886c9.084-1.275,18.823-2.349,27.492-8.336
		c8.842-6.194,13.989-14.907,19.97-21.597c1.23-1.379,1.094-3.481-0.28-4.697c-0.689-0.612-1.562-0.886-2.414-0.834
		c-0.853,0.053-1.679,0.427-2.291,1.113c-6.493,7.392-11.413,15.479-18.779,20.543c-6.909,4.828-15.383,5.96-24.603,7.21
		c-3.769,0.52-7.711,0.819-11.661,0.819h-0.006c-3.507,0-7.002-0.332-10.432-0.859l0,0l-5.101,5.896
		C375.828,255.515,381.072,256.01,386.239,256.01z"/>
	<path fill="#002D5C" d="M243.936,132.394c-4.412,1.257-8.616,2.61-12.786,3.313c-2.486,0.423-4.933,0.611-7.373,0.611
		c-11.504,0.052-22.912-4.217-35.932-4.398c-1.841-0.026-3.351,1.457-3.37,3.293c-0.02,1.63,1.171,2.938,2.719,3.243
		c0.196,0.039,0.371,0.123,0.579,0.127c11.492,0.053,22.925,4.333,35.997,4.399c2.767,0,5.604-0.209,8.505-0.704
		c6.013-1.047,11.446-2.986,16.75-4.362c0,0,0.006-0.003,0.013-0.003L243.936,132.394z"/>
	<path fill="#002D5C" d="M249.395,138.296c-17.055,14.218-36.881,27.213-49.928,46.747c-1.009,1.535-0.599,3.604,0.944,4.62
		c0.376,0.253,0.794,0.416,1.217,0.498c1.275,0.236,2.635-0.283,3.396-1.436c11.979-18.161,31.357-30.863,48.868-45.529
		c0.007-0.007,0.007-0.01,0.013-0.014L249.395,138.296z"/>
	<path fill="#D25459" d="M179.431,62.501h4.626v0.007h6.664h28.176h3.332v31.65h-13.594l35.301,38.229l5.102,5.519l0.357,0.391
		l4.51,4.887l6.585,7.132l4.542,4.906l32.307,34.995v0.007c0,0.062-1.359,33.855-6.714,48.491c0,0.003,0,0.006-0.006,0.009l0,0
		c-0.853,2.327-1.797,4.217-2.863,5.353l0.02-0.007l12.753-3.325c0,0,0.09-0.354,0.227-0.963c0-0.006,0-0.006,0-0.013
		c1.048-4.659,5.37-26.003,1.445-45.647c-0.007-0.007-0.007-0.014-0.007-0.02l23.334,32.867l0.013,0.016l2.35,3.316l1.692,2.381
		l27.011,38.041l0.006,0.007l14.101-16.347l0.006-0.006l5.095-5.89l0.007-0.006l7.151-8.29c0,0-31.429-5.466-51.016-28.872h-0.013
		h-4.189v-0.006v-5.525v-0.007c0-0.003-0.007-0.006-0.007-0.01c-7.731-11.518-12.5-26.73-10.678-46.646c0-0.003,0-0.003,0-0.007
		c0.097-1.097,0.214-2.202,0.357-3.324c0-0.004,0-0.004,0-0.007c1.015-8.121,3.046-16.951,6.442-26.653
		c0,0,10.894-25.261,17.296-49.136c0-0.003,0-0.003,0-0.006c0.3-1.116,0.56-2.215,0.839-3.325c0-0.003,0-0.003,0-0.007
		c1.685-6.705,2.96-13.195,3.467-18.87c0-0.004,0-0.004,0-0.006l0.033-0.281H174.824l0.006,0.007l0.248,0.274L179.431,62.501z"/>
	<polygon fill="#77777A" points="332.093,200.217 332.093,154.681 411.025,154.681 411.025,143.579 327.741,143.579 
		327.741,155.794 327.741,159.125 327.741,205.78 327.741,205.787 327.741,211.313 327.741,211.318 331.93,211.318 331.943,211.318 
		411.019,211.318 411.025,211.318 411.025,200.217 	"/>
	<polygon fill="#55565A" points="439.35,143.579 411.025,143.579 411.025,154.681 424.91,154.681 424.91,200.217 411.025,200.217 
		411.025,211.318 439.344,211.318 439.35,211.318 439.35,159.125 439.35,155.794 	"/>
	<polygon fill="#FFFFFF" points="332.093,200.217 411.025,200.217 424.91,200.217 424.91,154.681 411.025,154.681 332.093,154.681 	
		"/>
	<polygon fill="#FFFFFF" points="640.354,90.826 640.361,90.826 640.361,57.51 640.354,57.51 624.249,57.51 624.249,90.826 	"/>
	<rect x="624.249" y="221.313" fill="#FFFFFF" width="16.112" height="78.293"/>
	<polygon fill="#77777A" points="538.746,198.552 633.651,198.552 633.651,105.266 587.178,105.266 587.178,121.924 
		587.173,121.924 567.599,121.924 567.599,105.266 564.279,105.266 564.279,121.924 544.707,121.924 544.707,105.266 
		538.746,105.266 538.746,123.863 	"/>
	<polygon fill="#55565A" points="640.361,90.826 640.354,90.826 624.249,90.826 624.242,90.826 602.593,90.826 602.587,90.826 
		538.746,90.826 538.746,105.266 544.707,105.266 564.279,105.266 567.599,105.266 587.173,105.266 587.178,105.266 
		633.651,105.266 633.651,198.552 538.746,198.552 538.746,207.427 538.746,209.926 538.746,212.425 538.746,221.307 
		538.746,221.313 602.567,221.313 602.593,221.313 624.249,221.313 640.361,221.313 643.595,221.313 643.595,198.552 
		643.595,105.266 643.595,90.826 643.588,90.826 	"/>
	<rect x="544.707" y="105.266" fill="#FFFFFF" width="19.572" height="16.658"/>
	<polygon fill="#FFFFFF" points="587.173,121.924 587.178,121.924 587.178,105.266 587.173,105.266 567.599,105.266 
		567.599,121.924 	"/>
	<polygon fill="#FFFFFF" points="160.736,44.047 160.742,44.047 160.742,34.052 160.736,34.052 142.835,34.052 142.835,44.047 	"/>
	<polygon fill="#FFFFFF" points="183.745,44.047 183.752,44.047 183.752,39.05 183.745,39.05 165.857,39.05 165.857,44.047 	"/>
	<polygon fill="#FFFFFF" points="234.865,44.047 234.872,44.047 234.872,34.052 234.865,34.052 216.957,34.052 216.957,44.047 	"/>
	<rect x="245.692" y="34.052" fill="#FFFFFF" width="37.481" height="9.995"/>
	<rect x="413.536" y="34.052" fill="#FFFFFF" width="14.147" height="9.995"/>
	<rect x="297.333" y="34.052" fill="#FFA400" width="37.48" height="9.995"/>
	<rect x="345.479" y="34.052" fill="#FFA400" width="22.235" height="9.995"/>
	<rect x="478.327" y="34.052" fill="#FFA400" width="22.235" height="9.995"/>
	<rect x="141.715" y="75.002" fill="#FFFFFF" width="4.028" height="12.493"/>
	<rect x="152.407" y="75.002" fill="#FFFFFF" width="9.364" height="12.493"/>
	<rect x="168.44" y="75.002" fill="#FFFFFF" width="15.617" height="12.493"/>
	<rect x="190.721" y="75.002" fill="#FFFFFF" width="10.204" height="12.493"/>
	<rect x="207.587" y="75.002" fill="#FFFFFF" width="7.978" height="12.493"/>
	<path fill="#55565A" d="M169.481,94.158h14.576h6.664h10.204h6.663h1.034h0.013h13.594v-31.65h-3.332h-28.176h-6.664h-4.639h-9.937
		h-0.007h-1.027h-0.007h-6.657h-0.012h-9.357h-0.007h-6.656h-0.007h-10.691v3.331v28.319h10.691h0.007h6.656h0.007h9.357h0.012
		h6.657h0.007h1.008h0.019H169.481z M145.744,87.495h-4.028V75.002h4.028V87.495z M161.771,87.495h-9.364V75.002h9.364V87.495z
		 M207.587,75.002h7.978v12.493h-7.978V75.002z M190.721,75.002h10.204v12.493h-10.204V75.002z M168.44,87.495V75.002h15.617v12.493
		H168.44z"/>
	<rect x="120.646" y="61.122" fill="#55565A" width="8.127" height="17.211"/>
	<rect x="120.646" y="93.625" fill="#55565A" width="8.127" height="17.211"/>
	<rect x="120.646" y="126.127" fill="#55565A" width="8.127" height="17.218"/>
	<rect x="120.646" y="158.638" fill="#55565A" width="8.127" height="17.217"/>
	<rect x="120.646" y="191.146" fill="#55565A" width="8.127" height="17.211"/>
	<rect x="120.646" y="223.649" fill="#55565A" width="8.127" height="17.211"/>
	<rect x="120.646" y="256.152" fill="#55565A" width="8.127" height="17.218"/>
</g>
</svg>
