<?xml version="1.0" encoding="UTF-8" standalone="no"?>
<!-- Created with Inkscape (http://www.inkscape.org/) -->

<svg
   xmlns:dc="http://purl.org/dc/elements/1.1/"
   xmlns:cc="http://creativecommons.org/ns#"
   xmlns:rdf="http://www.w3.org/1999/02/22-rdf-syntax-ns#"
   xmlns:svg="http://www.w3.org/2000/svg"
   xmlns="http://www.w3.org/2000/svg"
   xmlns:sodipodi="http://sodipodi.sourceforge.net/DTD/sodipodi-0.dtd"
   xmlns:inkscape="http://www.inkscape.org/namespaces/inkscape"
   id="svg2985"
   version="1.1"
   inkscape:version="0.48.1 "
   width="500"
   height="110"
   xml:space="preserve"
   sodipodi:docname="reebok_logo14.svg"><metadata
     id="metadata2991"><rdf:RDF><cc:Work
         rdf:about=""><dc:format>image/svg+xml</dc:format><dc:type
           rdf:resource="http://purl.org/dc/dcmitype/StillImage" /><dc:title /></cc:Work></rdf:RDF></metadata><defs
     id="defs2989"><clipPath
       clipPathUnits="userSpaceOnUse"
       id="clipPath2999"><path
         d="m 23.4,23.4 601.2,0 0,799.2 -601.2,0 0,-799.2 z"
         id="path3001"
         inkscape:connector-curvature="0" /></clipPath><clipPath
       clipPathUnits="userSpaceOnUse"
       id="clipPath3027"><path
         d="M 0,0 648,0 648,846 0,846 0,0 z"
         id="path3029"
         inkscape:connector-curvature="0" /></clipPath></defs><sodipodi:namedview
     pagecolor="#ffffff"
     bordercolor="#666666"
     borderopacity="1"
     objecttolerance="10"
     gridtolerance="10"
     guidetolerance="10"
     inkscape:pageopacity="0"
     inkscape:pageshadow="2"
     inkscape:window-width="1366"
     inkscape:window-height="706"
     id="namedview2987"
     showgrid="false"
     fit-margin-left="0.5"
     fit-margin-bottom="0.5"
     fit-margin-top="0.5"
     fit-margin-right="0.5"
     inkscape:zoom="1.4718069"
     inkscape:cx="198.48263"
     inkscape:cy="1.7893114"
     inkscape:window-x="-8"
     inkscape:window-y="-8"
     inkscape:window-maximized="1"
     inkscape:current-layer="g2993" /><g
     id="g2993"
     inkscape:groupmode="layer"
     inkscape:label="317420"
     transform="matrix(1.25,0,0,-1.25,-683.24967,255.95724)"><g
       id="g3035"
       transform="matrix(1.9559587,0,0,1.9559587,-517.56211,-107.45309)"><g
         style="fill:#d01931;fill-opacity:1"
         transform="matrix(2.2838801,0,0,2.2838801,714.17289,128.79487)"
         id="g3019"><path
           inkscape:connector-curvature="0"
           id="path3021"
           style="fill:#d01931;fill-opacity:1;fill-rule:nonzero;stroke:none"
           d="M 0,0 3.239,5.585 3.662,12.339 2.936,12.34 -6.035,-3.125 -5.656,-3.778 0,0 z m 0.767,-1.309 -6.088,-3.043 0.376,-0.655 17.875,-0.033 0.361,0.625 -6.103,3.1 -6.421,0.006 z M 5.114,12.336 4.335,12.339 4.72,5.584 7.937,-0.02 l 5.686,-3.823 0.4,0.682 -8.909,15.497 z" /></g><g
         transform="matrix(2.2838801,0,0,2.2838801,-702.28199,-150.42683)"
         style="fill:#2b2c2b;fill-opacity:1"
         id="g3023"><g
           style="fill:#2b2c2b;fill-opacity:1"
           clip-path="url(#clipPath3027)"
           id="g3025"><g
             style="fill:#2b2c2b;fill-opacity:1"
             transform="translate(599.9731,123.7541)"
             id="g3031"><path
               inkscape:connector-curvature="0"
               id="path3033"
               style="fill:#2b2c2b;fill-opacity:1;fill-rule:nonzero;stroke:none"
               d="m 0,0 -0.002,-2.305 c -0.005,-2.696 -1.854,-4.207 -4.434,-4.28 l -0.558,0 c -2.582,0.107 -4.413,1.616 -4.408,4.295 l 0,2.305 c 0.009,2.702 1.858,4.201 4.45,4.275 0.131,0.002 0.385,0 0.513,0 C -1.838,4.207 0.007,2.681 0,0 M -4.88,2.053 C -5.897,1.997 -6.874,1.472 -6.878,0.005 l 0,-2.31 c -0.004,-1.411 0.971,-1.979 1.989,-2.041 0.052,-0.006 0.308,-0.006 0.364,-0.003 0.998,0.056 1.987,0.598 1.989,2.038 L -2.533,0 c 0.005,1.451 -0.985,1.994 -1.999,2.053 -0.125,0.009 -0.231,0.009 -0.348,0" /></g><g
             style="fill:#2b2c2b;fill-opacity:1"
             transform="translate(603.8603,123.4729)"
             id="g3043"><path
               inkscape:connector-curvature="0"
               id="path3037"
               style="fill:#2b2c2b;fill-opacity:1;fill-rule:nonzero;stroke:none"
               d="M 0,0 C 0,0 3.79,4.313 4.016,4.553 L 7.184,4.545 2.579,-0.658 7.411,-6.017 4.201,-6.012 -0.004,-1.336 -0.012,-6.005 -2.561,-6 -2.537,7.137 0.01,7.133 0,0 z" /></g><g
             style="fill:#2b2c2b;fill-opacity:1"
             transform="translate(567.8198,121.9379)"
             id="g3039"><path
               inkscape:connector-curvature="0"
               id="path3041"
               style="fill:#2b2c2b;fill-opacity:1;fill-rule:nonzero;stroke:none"
               d="M 0,0 0.005,1.859 C 0.012,4.56 -1.875,6.072 -4.46,6.16 L -4.947,6.163 C -7.549,6.082 -9.399,4.578 -9.401,1.879 l -0.005,-2.293 c -0.005,-2.572 1.91,-4.169 4.385,-4.298 0.263,-0.005 0.4,0.002 0.577,0 3.099,-0.005 4.258,1.565 4.4,3.361 l -2.332,0.006 c -0.062,-0.34 -0.177,-1.212 -2.13,-1.21 -0.343,0.004 -0.818,0.088 -1.159,0.2 -1.448,0.485 -1.217,2.272 -1.217,2.37 L 0,0 z m -6.884,2.051 c 0,1.389 0.923,1.93 2.017,1.973 0.117,0.003 0.236,0.006 0.339,-0.002 1.109,-0.046 2.037,-0.632 2.034,-1.981 l 0,-0.179 -4.394,0.004 0.004,0.185 z" /></g><g
             style="fill:#2b2c2b;fill-opacity:1"
             transform="translate(578.4982,121.9222)"
             id="g3048"><path
               inkscape:connector-curvature="0"
               id="path3045"
               style="fill:#2b2c2b;fill-opacity:1;fill-rule:nonzero;stroke:none"
               d="M 0,0 0.004,1.855 C 0.011,4.556 -1.878,6.068 -4.465,6.16 l -0.483,0 C -7.554,6.08 -9.409,4.575 -9.413,1.877 l -0.003,-2.295 c -0.005,-2.567 1.908,-4.171 4.387,-4.298 0.27,-0.005 0.401,0 0.58,0 3.104,-0.005 4.255,1.569 4.398,3.36 l -2.319,0.009 c -0.076,-0.341 -0.181,-1.212 -2.146,-1.209 -0.34,0.003 -0.81,0.088 -1.146,0.201 -1.461,0.482 -1.221,2.27 -1.223,2.366 L 0,0 z m -6.892,2.045 c 0.004,1.393 0.931,1.935 2.017,1.976 0.114,0.004 0.238,0.002 0.345,-0.003 1.105,-0.044 2.034,-0.631 2.031,-1.978 l 0,-0.18 -4.396,0.006 0.003,0.179 z" /></g><g
             style="fill:#2b2c2b;fill-opacity:1"
             transform="translate(584.8406,128.0434)"
             id="g3047"><path
               inkscape:connector-curvature="0"
               id="path3049"
               style="fill:#2b2c2b;fill-opacity:1;fill-rule:nonzero;stroke:none"
               d="m 0,0 c -1.181,0.003 -1.99,-0.319 -2.435,-0.7 l 0.003,3.301 -2.53,0.004 -0.021,-13.137 0.442,0 c 0,0 1.124,0.629 1.185,0.65 0.163,-0.173 1.271,-0.986 2.803,-0.986 0.195,-0.002 0.375,-0.017 0.565,-0.005 2.56,0.053 4.415,1.642 4.421,4.28 l 0.002,2.292 C 4.44,-1.721 2.581,-0.002 0,0 m 1.901,-6.602 c -0.001,-1.438 -1,-1.979 -1.994,-2.044 -0.052,0 -0.316,0.002 -0.363,0.005 -1.016,0.068 -1.991,0.628 -1.991,2.043 l 0.006,2.309 c 0.002,1.472 0.981,1.988 1.994,2.055 0.122,0.009 0.232,0.013 0.356,-10e-4 1.004,-0.069 1.997,-0.599 1.995,-2.061 L 1.901,-6.602 z" /></g><g
             style="fill:#2b2c2b;fill-opacity:1"
             transform="translate(558.0937,117.5499)"
             id="g3051"><path
               inkscape:connector-curvature="0"
               id="path3053"
               style="fill:#2b2c2b;fill-opacity:1;fill-rule:nonzero;stroke:none"
               d="m 0,0 -4.863,5.425 c 0.242,-0.014 0.482,-0.024 0.728,-0.024 1.671,-0.002 3.751,1.052 3.754,3.728 0.009,3.209 -2.655,4.012 -5.016,4.014 l -5.67,0.014 -0.027,-13.136 2.569,-0.006 0,5.863 5.27,-5.872 L 0,0 z m -8.509,10.906 3.081,-0.009 c 1.423,0 2.682,-0.451 2.682,-1.804 C -2.75,7.736 -3.536,7.25 -5.435,7.259 l -3.082,0.002 0.008,3.645 z" /></g></g></g></g></g></svg>