<?xml version="1.0" encoding="utf-8"?>
<!-- Generator: Adobe Illustrator 16.0.3, SVG Export Plug-In . SVG Version: 6.00 Build 0)  -->
<!DOCTYPE svg PUBLIC "-//W3C//DTD SVG 1.1//EN" "http://www.w3.org/Graphics/SVG/1.1/DTD/svg11.dtd">
<svg version="1.1" id="Layer_1" xmlns="http://www.w3.org/2000/svg" xmlns:xlink="http://www.w3.org/1999/xlink" x="0px" y="0px"
	 width="792px" height="612px" viewBox="0 0 792 612" enable-background="new 0 0 792 612" xml:space="preserve">
<g id="BOX">
	<g>
		<polygon fill="#FFA400" points="319.694,322.481 183.762,250.141 183.762,485.201 376.868,581.986 376.868,291.985 		"/>
		<polygon fill="#FFA400" points="473.828,327.292 409.747,293.118 409.747,581.986 602.853,485.201 602.853,258.626 		"/>
		<polygon fill="#FFA400" points="428.55,65.66 583.091,144.407 583.091,144.407 601.104,153.591 666.94,118.462 473.006,24.399 
			410.291,56.359 		"/>
		<polygon fill="#FFA400" points="319.682,303.698 374.64,274.386 361.218,267.225 183.011,172.168 126.579,200.929 		"/>
		<polygon fill="#FFA400" points="183.192,153.478 373.786,56.359 320.51,29.213 126.579,123.276 		"/>
		<path fill="#002D5C" d="M619.428,162.925v-0.33l84.057-44.835l-29.299-14.215L472.831,5.881l-80.793,41.167l-71.346-36.353
			l-7.407,3.594L90.045,122.567l75.134,40.079l0,0l0,0l-74.477,37.953l28.098,14.95l48.393,25.76v254.108l225.985,113.265v0.136
			l0.136-0.064l0.136,0.064v-0.136l225.985-113.258V249.801l83.396-44.382L619.428,162.925z M583.26,163.103L392.251,264.991
			L201.023,162.993L392.038,65.66L583.26,163.103z M473.006,24.399l193.935,94.07l-65.836,35.123l-18.014-9.178l0,0L428.543,65.667
			l0,0l-18.259-9.301L473.006,24.399z M320.51,29.213l53.275,27.146l-190.594,97.119l-56.613-30.202L320.51,29.213z
			 M126.579,200.929l56.438-28.755l178.207,95.057l13.416,7.161l-54.958,29.312L126.579,200.929z M183.762,485.201v-235.06
			l135.933,72.34l57.173-30.497v290.001L183.762,485.201z M602.853,485.201l-193.105,96.785V293.118l64.081,34.174l129.024-68.659
			V485.201z M473.835,308.516l-63.972-34.129l191.416-102.105l65.661,33.462L473.835,308.516z"/>
		<polygon fill="#FFA400" points="601.272,172.281 409.856,274.386 473.835,308.516 666.94,205.743 		"/>
		<polygon fill="#8A8A8D" points="392.038,65.66 201.023,162.993 392.251,264.991 583.26,163.103 		"/>
	</g>
</g>
</svg>
