<?xml version="1.0" encoding="utf-8"?>
<!-- Generator: Adobe Illustrator 23.0.2, SVG Export Plug-In . SVG Version: 6.00 Build 0)  -->
<svg version="1.1" id="Layer_1" xmlns="http://www.w3.org/2000/svg" xmlns:xlink="http://www.w3.org/1999/xlink" x="0px" y="0px"
	 viewBox="0 0 335 43" style="enable-background:new 0 0 335 43;" xml:space="preserve">
<style type="text/css">
	.st0{fill:#002D5D;}
	.st1{fill:#FF9E18;}
	.st2{fill:none;stroke:#FFFFFF;stroke-width:2;stroke-miterlimit:10;}
	.st3{fill:none;stroke:#002D5D;stroke-width:0.5;stroke-miterlimit:10;}
	.st4{fill:#98989A;}
</style>
<g>
	<path class="st0" d="M0.85,24.69V1.21h6.31v18.36h11.46v5.12H0.85z"/>
	<path class="st0" d="M95.16,24.69V1.21h6.31v18.36h11.46v5.12H95.16z"/>
	<path class="st0" d="M22.79,24.69l9.1-23.48h4.43l9.06,23.48h-5.8l-1.28-3.76h-8.43l-1.28,3.76H22.79z M34.09,9.18l-3.35,8.01h6.63
		L34.09,9.18z"/>
	<path class="st0" d="M48.87,24.69V1.21h11.9c1.13,0,2.17,0.23,3.12,0.69c0.94,0.46,1.75,1.07,2.43,1.82
		c0.68,0.75,1.21,1.6,1.6,2.55s0.58,1.91,0.58,2.88c0,1.04-0.18,2.03-0.55,2.98c-0.37,0.95-0.88,1.8-1.53,2.55
		c-0.66,0.75-1.45,1.35-2.38,1.79c-0.93,0.44-1.97,0.66-3.1,0.66H54.9v7.57H48.87z M54.9,12.39h5.7c0.64,0,1.2-0.28,1.67-0.83
		c0.47-0.55,0.7-1.36,0.7-2.41c0-0.55-0.07-1.02-0.22-1.42c-0.14-0.4-0.34-0.73-0.58-0.99c-0.24-0.26-0.52-0.46-0.83-0.58
		c-0.31-0.12-0.62-0.18-0.93-0.18h-5.5V12.39z"/>
	<path class="st0" d="M90.15,19.93v4.76H71.31V1.21h18.84v4.76H76.78v4.56h13.38v4.4H76.78v4.99H90.15z"/>
	<path class="st0" d="M118.11,24.69V1.21h10.1c1.13,0,2.17,0.23,3.12,0.69c0.94,0.46,1.75,1.07,2.43,1.82
		c0.68,0.75,1.21,1.6,1.6,2.55s0.58,1.91,0.58,2.88c0,1.04-0.18,2.03-0.55,2.98c-0.37,0.95-0.88,1.8-1.53,2.55
		c-0.66,0.75-1.45,1.35-2.38,1.79c-0.93,0.44-1.97,0.66-3.1,0.66h-4.8v7.57H118.11z M123.57,12.39h4.47c0.64,0,1.2-0.28,1.67-0.83
		c0.47-0.55,0.7-1.36,0.7-2.41c0-0.55-0.07-1.02-0.22-1.42c-0.14-0.4-0.34-0.73-0.58-0.99c-0.24-0.26-0.52-0.46-0.83-0.58
		c-0.31-0.12-0.62-0.18-0.93-0.18h-4.27V12.39z"/>
	<path class="st0" d="M139.59,24.69V1.21h7.13v23.48H139.59z"/>
	<path class="st0" d="M157.05,12.66v12.03h-6.46V1.21h6.46l8.17,12.58V1.21h6.89v23.48h-6.89L157.05,12.66z"/>
	<path class="st0" d="M192.44,8.09c-0.1-0.09-0.36-0.25-0.78-0.5c-0.43-0.24-0.96-0.5-1.6-0.76c-0.64-0.26-1.34-0.5-2.09-0.69
		c-0.76-0.2-1.51-0.3-2.27-0.3c-0.99,0-1.76,0.17-2.29,0.5c-0.53,0.33-0.8,0.82-0.8,1.45c0,0.4,0.12,0.73,0.35,0.99
		c0.24,0.26,0.57,0.5,1.01,0.71c0.44,0.21,0.98,0.4,1.63,0.58c0.65,0.18,1.4,0.38,2.25,0.6c1.21,0.31,2.29,0.64,3.26,1.01
		c0.97,0.36,1.8,0.82,2.48,1.36c0.69,0.54,1.21,1.2,1.58,1.97c0.37,0.77,0.55,1.7,0.55,2.78c0,1.32-0.27,2.44-0.8,3.36
		c-0.53,0.91-1.24,1.65-2.11,2.22c-0.88,0.56-1.89,0.97-3.03,1.22c-1.15,0.25-2.32,0.38-3.53,0.38c-0.92,0-1.86-0.07-2.82-0.2
		c-0.96-0.13-1.9-0.32-2.82-0.58c-0.92-0.25-1.82-0.56-2.7-0.91c-0.88-0.35-1.68-0.76-2.41-1.22l2.55-4.73
		c0.12,0.11,0.44,0.32,0.96,0.63c0.52,0.31,1.16,0.62,1.92,0.93c0.76,0.31,1.61,0.58,2.55,0.83c0.94,0.24,1.9,0.36,2.87,0.36
		c2.06,0,3.09-0.58,3.09-1.75c0-0.44-0.15-0.8-0.46-1.09c-0.31-0.29-0.73-0.55-1.28-0.78c-0.54-0.23-1.18-0.45-1.91-0.64
		c-0.73-0.2-1.54-0.42-2.41-0.66c-1.16-0.33-2.16-0.69-3.01-1.08c-0.85-0.39-1.57-0.83-2.13-1.34c-0.57-0.51-0.99-1.09-1.26-1.75
		c-0.27-0.66-0.41-1.43-0.41-2.31c0-1.23,0.25-2.33,0.74-3.27c0.5-0.95,1.17-1.75,2.02-2.4c0.85-0.65,1.84-1.14,2.97-1.47
		c1.12-0.33,2.31-0.5,3.56-0.5c0.9,0,1.77,0.08,2.62,0.23c0.85,0.15,1.66,0.35,2.43,0.6c0.77,0.24,1.5,0.52,2.18,0.83
		c0.69,0.31,1.3,0.62,1.84,0.93L192.44,8.09z"/>
</g>
<g>
	<path class="st1" d="M268.2,24.69V1.21h7.13v23.48H268.2z"/>
	<path class="st1" d="M285.98,12.66v12.03h-6.46V1.21h6.46l8.17,12.58V1.21h6.89v23.48h-6.89L285.98,12.66z"/>
	<path class="st1" d="M321.57,8.09c-0.1-0.09-0.36-0.25-0.78-0.5c-0.43-0.24-0.96-0.5-1.6-0.76c-0.64-0.26-1.34-0.5-2.09-0.69
		c-0.76-0.2-1.51-0.3-2.27-0.3c-0.99,0-1.76,0.17-2.29,0.5c-0.53,0.33-0.8,0.82-0.8,1.45c0,0.4,0.12,0.73,0.35,0.99
		c0.24,0.26,0.57,0.5,1.01,0.71c0.44,0.21,0.98,0.4,1.63,0.58c0.65,0.18,1.4,0.38,2.25,0.6c1.21,0.31,2.29,0.64,3.26,1.01
		c0.97,0.36,1.8,0.82,2.48,1.36c0.69,0.54,1.21,1.2,1.58,1.97s0.55,1.7,0.55,2.78c0,1.32-0.27,2.44-0.8,3.36
		c-0.53,0.91-1.24,1.65-2.11,2.22c-0.88,0.56-1.89,0.97-3.03,1.22c-1.15,0.25-2.32,0.38-3.53,0.38c-0.92,0-1.86-0.07-2.82-0.2
		c-0.96-0.13-1.9-0.32-2.82-0.58c-0.92-0.25-1.82-0.56-2.7-0.91c-0.88-0.35-1.68-0.76-2.41-1.22l2.55-4.73
		c0.12,0.11,0.44,0.32,0.96,0.63c0.52,0.31,1.16,0.62,1.92,0.93c0.76,0.31,1.61,0.58,2.55,0.83c0.94,0.24,1.9,0.36,2.87,0.36
		c2.06,0,3.09-0.58,3.09-1.75c0-0.44-0.15-0.8-0.46-1.09c-0.31-0.29-0.73-0.55-1.28-0.78c-0.54-0.23-1.18-0.45-1.91-0.64
		c-0.73-0.2-1.54-0.42-2.41-0.66c-1.16-0.33-2.16-0.69-3.01-1.08c-0.85-0.39-1.57-0.83-2.13-1.34c-0.57-0.51-0.99-1.09-1.26-1.75
		c-0.27-0.66-0.41-1.43-0.41-2.31c0-1.23,0.25-2.33,0.74-3.27c0.5-0.95,1.17-1.75,2.02-2.4c0.85-0.65,1.84-1.14,2.97-1.47
		c1.12-0.33,2.31-0.5,3.56-0.5c0.9,0,1.77,0.08,2.62,0.23c0.85,0.15,1.66,0.35,2.43,0.6c0.77,0.24,1.5,0.52,2.18,0.83
		c0.69,0.31,1.3,0.62,1.84,0.93L321.57,8.09z"/>
	<path class="st1" d="M235.09,17.44c-0.19,0.36-0.4,0.69-0.66,0.96c-0.38,0.41-0.81,0.74-1.29,1c-0.48,0.26-0.98,0.44-1.49,0.57
		c-0.52,0.12-1.01,0.18-1.49,0.18c-0.93,0-1.78-0.19-2.55-0.58c-0.77-0.39-1.42-0.91-1.96-1.58s-0.96-1.43-1.26-2.29
		c-0.3-0.86-0.45-1.76-0.45-2.69c0-0.86,0.13-1.72,0.38-2.56c0.25-0.84,0.63-1.6,1.13-2.26s1.14-1.21,1.9-1.63
		c0.77-0.42,1.68-0.63,2.73-0.63c0.45,0,0.94,0.05,1.46,0.15c0.51,0.1,1.01,0.28,1.49,0.53c0.48,0.25,0.92,0.59,1.33,1
		c0.12,0.12,0.21,0.26,0.32,0.4l4.37-3.04c-0.75-0.96-1.71-1.78-2.9-2.46c-1.68-0.95-3.65-1.43-5.93-1.43
		c-1.94,0-3.67,0.34-5.19,1.03c-1.52,0.69-2.81,1.58-3.86,2.69c-1.05,1.11-1.86,2.37-2.41,3.77c-0.55,1.41-0.83,2.82-0.83,4.24
		c0,1.51,0.3,2.99,0.9,4.45s1.43,2.77,2.5,3.92c1.07,1.15,2.33,2.08,3.81,2.77c1.47,0.7,3.1,1.05,4.87,1.05
		c1.01,0,2.03-0.12,3.07-0.37c1.04-0.24,2.03-0.6,2.96-1.06c0.93-0.47,1.77-1.04,2.5-1.73c0.56-0.53,1.02-1.12,1.38-1.75
		L235.09,17.44z"/>
	<path class="st1" d="M253.1,25.02c-1.82,0-3.47-0.34-4.96-1.02s-2.76-1.58-3.83-2.7c-1.07-1.11-1.89-2.39-2.48-3.82
		c-0.59-1.43-0.88-2.91-0.88-4.43c0-1.54,0.31-3.03,0.92-4.46c0.61-1.43,1.46-2.69,2.55-3.79c1.09-1.09,2.38-1.96,3.88-2.61
		c1.5-0.65,3.13-0.98,4.9-0.98c1.82,0,3.47,0.34,4.96,1.03c1.48,0.68,2.76,1.59,3.83,2.71s1.89,2.4,2.46,3.84
		c0.58,1.43,0.86,2.89,0.86,4.37c0,1.54-0.3,3.03-0.92,4.46c-0.61,1.43-1.46,2.69-2.53,3.79c-1.08,1.09-2.37,1.97-3.86,2.63
		C256.5,24.69,254.87,25.02,253.1,25.02z M246.95,13.12c0,0.9,0.14,1.78,0.41,2.63c0.28,0.85,0.67,1.6,1.19,2.27
		c0.52,0.66,1.16,1.19,1.94,1.59c0.78,0.4,1.67,0.6,2.68,0.6c1.03,0,1.93-0.21,2.69-0.63c0.77-0.42,1.41-0.96,1.92-1.64
		c0.51-0.67,0.9-1.43,1.15-2.28c0.25-0.85,0.38-1.71,0.38-2.6c0-0.9-0.14-1.78-0.41-2.63c-0.28-0.85-0.68-1.6-1.2-2.25
		c-0.53-0.65-1.17-1.17-1.94-1.55c-0.77-0.39-1.64-0.58-2.62-0.58c-1.03,0-1.93,0.2-2.69,0.61c-0.77,0.41-1.41,0.94-1.92,1.6
		c-0.52,0.66-0.9,1.42-1.17,2.27C247.08,11.37,246.95,12.23,246.95,13.12z"/>
</g>
<g>
	<path class="st2" d="M301.06,35.22c-0.08,0.23-0.18,0.44-0.3,0.62c-0.19,0.27-0.41,0.51-0.67,0.7c-0.26,0.19-0.53,0.34-0.83,0.46
		c-0.29,0.12-0.58,0.19-0.86,0.24c-0.55,0.08-1.06,0.04-1.55-0.12c-0.48-0.16-0.91-0.41-1.28-0.76c-0.37-0.34-0.69-0.76-0.94-1.24
		c-0.25-0.48-0.42-0.99-0.5-1.54c-0.07-0.51-0.07-1.02,0-1.53c0.07-0.52,0.23-0.99,0.47-1.42c0.24-0.43,0.56-0.81,0.98-1.12
		c0.41-0.31,0.93-0.52,1.55-0.61c0.27-0.04,0.56-0.05,0.87-0.04c0.31,0.01,0.62,0.08,0.92,0.18c0.3,0.11,0.59,0.26,0.87,0.47
		c0.08,0.06,0.15,0.14,0.22,0.21l2.3-2.16c-0.53-0.5-1.16-0.9-1.91-1.19c-1.07-0.41-2.27-0.52-3.6-0.32
		c-1.14,0.17-2.12,0.52-2.95,1.05c-0.83,0.53-1.51,1.17-2.03,1.91c-0.52,0.74-0.88,1.55-1.08,2.42c-0.2,0.87-0.24,1.73-0.12,2.56
		c0.13,0.88,0.43,1.73,0.91,2.53c0.48,0.81,1.08,1.5,1.8,2.08c0.72,0.58,1.55,1.02,2.47,1.3c0.92,0.28,1.91,0.35,2.94,0.19
		c0.59-0.09,1.18-0.25,1.77-0.48c0.59-0.23,1.14-0.53,1.65-0.88c0.51-0.35,0.95-0.76,1.31-1.23c0.29-0.36,0.5-0.74,0.66-1.15
		L301.06,35.22z"/>
	<path class="st3" d="M301.06,35.22c-0.08,0.23-0.18,0.44-0.3,0.62c-0.19,0.27-0.41,0.51-0.67,0.7c-0.26,0.19-0.53,0.34-0.83,0.46
		c-0.29,0.12-0.58,0.19-0.86,0.24c-0.55,0.08-1.06,0.04-1.55-0.12c-0.48-0.16-0.91-0.41-1.28-0.76c-0.37-0.34-0.69-0.76-0.94-1.24
		c-0.25-0.48-0.42-0.99-0.5-1.54c-0.07-0.51-0.07-1.02,0-1.53c0.07-0.52,0.23-0.99,0.47-1.42c0.24-0.43,0.56-0.81,0.98-1.12
		c0.41-0.31,0.93-0.52,1.55-0.61c0.27-0.04,0.56-0.05,0.87-0.04c0.31,0.01,0.62,0.08,0.92,0.18c0.3,0.11,0.59,0.26,0.87,0.47
		c0.08,0.06,0.15,0.14,0.22,0.21l2.3-2.16c-0.53-0.5-1.16-0.9-1.91-1.19c-1.07-0.41-2.27-0.52-3.6-0.32
		c-1.14,0.17-2.12,0.52-2.95,1.05c-0.83,0.53-1.51,1.17-2.03,1.91c-0.52,0.74-0.88,1.55-1.08,2.42c-0.2,0.87-0.24,1.73-0.12,2.56
		c0.13,0.88,0.43,1.73,0.91,2.53c0.48,0.81,1.08,1.5,1.8,2.08c0.72,0.58,1.55,1.02,2.47,1.3c0.92,0.28,1.91,0.35,2.94,0.19
		c0.59-0.09,1.18-0.25,1.77-0.48c0.59-0.23,1.14-0.53,1.65-0.88c0.51-0.35,0.95-0.76,1.31-1.23c0.29-0.36,0.5-0.74,0.66-1.15
		L301.06,35.22z"/>
	<path class="st0" d="M301.06,35.22c-0.08,0.23-0.18,0.44-0.3,0.62c-0.19,0.27-0.41,0.51-0.67,0.7c-0.26,0.19-0.53,0.34-0.83,0.46
		c-0.29,0.12-0.58,0.19-0.86,0.24c-0.55,0.08-1.06,0.04-1.55-0.12c-0.48-0.16-0.91-0.41-1.28-0.76c-0.37-0.34-0.69-0.76-0.94-1.24
		c-0.25-0.48-0.42-0.99-0.5-1.54c-0.07-0.51-0.07-1.02,0-1.53c0.07-0.52,0.23-0.99,0.47-1.42c0.24-0.43,0.56-0.81,0.98-1.12
		c0.41-0.31,0.93-0.52,1.55-0.61c0.27-0.04,0.56-0.05,0.87-0.04c0.31,0.01,0.62,0.08,0.92,0.18c0.3,0.11,0.59,0.26,0.87,0.47
		c0.08,0.06,0.15,0.14,0.22,0.21l2.3-2.16c-0.53-0.5-1.16-0.9-1.91-1.19c-1.07-0.41-2.27-0.52-3.6-0.32
		c-1.14,0.17-2.12,0.52-2.95,1.05c-0.83,0.53-1.51,1.17-2.03,1.91c-0.52,0.74-0.88,1.55-1.08,2.42c-0.2,0.87-0.24,1.73-0.12,2.56
		c0.13,0.88,0.43,1.73,0.91,2.53c0.48,0.81,1.08,1.5,1.8,2.08c0.72,0.58,1.55,1.02,2.47,1.3c0.92,0.28,1.91,0.35,2.94,0.19
		c0.59-0.09,1.18-0.25,1.77-0.48c0.59-0.23,1.14-0.53,1.65-0.88c0.51-0.35,0.95-0.76,1.31-1.23c0.29-0.36,0.5-0.74,0.66-1.15
		L301.06,35.22z"/>
</g>
<g>
	<path class="st2" d="M312.15,38.3c-1.09,0.16-2.11,0.1-3.05-0.17c-0.95-0.28-1.79-0.7-2.53-1.27c-0.74-0.57-1.34-1.26-1.82-2.06
		c-0.48-0.8-0.78-1.66-0.92-2.57c-0.14-0.92-0.08-1.84,0.15-2.75c0.24-0.91,0.64-1.74,1.19-2.49c0.56-0.75,1.25-1.38,2.09-1.9
		c0.84-0.52,1.79-0.86,2.85-1.02c1.09-0.16,2.11-0.1,3.05,0.18c0.95,0.28,1.79,0.71,2.53,1.28s1.34,1.27,1.81,2.08
		c0.47,0.81,0.77,1.65,0.9,2.53c0.14,0.92,0.09,1.84-0.15,2.75c-0.24,0.91-0.63,1.74-1.18,2.49c-0.55,0.75-1.24,1.38-2.08,1.91
		C314.16,37.8,313.21,38.14,312.15,38.3z M307.43,31.72c0.08,0.54,0.24,1.05,0.48,1.54c0.24,0.48,0.54,0.9,0.91,1.25
		c0.37,0.35,0.8,0.61,1.3,0.78c0.5,0.17,1.05,0.21,1.65,0.12c0.62-0.09,1.13-0.3,1.56-0.61c0.42-0.32,0.76-0.7,1-1.15
		c0.25-0.45,0.41-0.94,0.49-1.47c0.08-0.53,0.07-1.06,0-1.58c-0.08-0.54-0.24-1.05-0.48-1.54c-0.24-0.48-0.55-0.9-0.92-1.24
		c-0.37-0.34-0.8-0.59-1.3-0.76c-0.49-0.16-1.03-0.2-1.62-0.11c-0.62,0.09-1.13,0.29-1.56,0.6c-0.42,0.31-0.76,0.69-1.01,1.13
		c-0.25,0.44-0.42,0.93-0.5,1.46C307.35,30.67,307.35,31.2,307.43,31.72z"/>
	<path class="st3" d="M312.15,38.3c-1.09,0.16-2.11,0.1-3.05-0.17c-0.95-0.28-1.79-0.7-2.53-1.27c-0.74-0.57-1.34-1.26-1.82-2.06
		c-0.48-0.8-0.78-1.66-0.92-2.57c-0.14-0.92-0.08-1.84,0.15-2.75c0.24-0.91,0.64-1.74,1.19-2.49c0.56-0.75,1.25-1.38,2.09-1.9
		c0.84-0.52,1.79-0.86,2.85-1.02c1.09-0.16,2.11-0.1,3.05,0.18c0.95,0.28,1.79,0.71,2.53,1.28s1.34,1.27,1.81,2.08
		c0.47,0.81,0.77,1.65,0.9,2.53c0.14,0.92,0.09,1.84-0.15,2.75c-0.24,0.91-0.63,1.74-1.18,2.49c-0.55,0.75-1.24,1.38-2.08,1.91
		C314.16,37.8,313.21,38.14,312.15,38.3z M307.43,31.72c0.08,0.54,0.24,1.05,0.48,1.54c0.24,0.48,0.54,0.9,0.91,1.25
		c0.37,0.35,0.8,0.61,1.3,0.78c0.5,0.17,1.05,0.21,1.65,0.12c0.62-0.09,1.13-0.3,1.56-0.61c0.42-0.32,0.76-0.7,1-1.15
		c0.25-0.45,0.41-0.94,0.49-1.47c0.08-0.53,0.07-1.06,0-1.58c-0.08-0.54-0.24-1.05-0.48-1.54c-0.24-0.48-0.55-0.9-0.92-1.24
		c-0.37-0.34-0.8-0.59-1.3-0.76c-0.49-0.16-1.03-0.2-1.62-0.11c-0.62,0.09-1.13,0.29-1.56,0.6c-0.42,0.31-0.76,0.69-1.01,1.13
		c-0.25,0.44-0.42,0.93-0.5,1.46C307.35,30.67,307.35,31.2,307.43,31.72z"/>
	<path class="st0" d="M312.15,38.3c-1.09,0.16-2.11,0.1-3.05-0.17c-0.95-0.28-1.79-0.7-2.53-1.27c-0.74-0.57-1.34-1.26-1.82-2.06
		c-0.48-0.8-0.78-1.66-0.92-2.57c-0.14-0.92-0.08-1.84,0.15-2.75c0.24-0.91,0.64-1.74,1.19-2.49c0.56-0.75,1.25-1.38,2.09-1.9
		c0.84-0.52,1.79-0.86,2.85-1.02c1.09-0.16,2.11-0.1,3.05,0.18c0.95,0.28,1.79,0.71,2.53,1.28s1.34,1.27,1.81,2.08
		c0.47,0.81,0.77,1.65,0.9,2.53c0.14,0.92,0.09,1.84-0.15,2.75c-0.24,0.91-0.63,1.74-1.18,2.49c-0.55,0.75-1.24,1.38-2.08,1.91
		C314.16,37.8,313.21,38.14,312.15,38.3z M307.43,31.72c0.08,0.54,0.24,1.05,0.48,1.54c0.24,0.48,0.54,0.9,0.91,1.25
		c0.37,0.35,0.8,0.61,1.3,0.78c0.5,0.17,1.05,0.21,1.65,0.12c0.62-0.09,1.13-0.3,1.56-0.61c0.42-0.32,0.76-0.7,1-1.15
		c0.25-0.45,0.41-0.94,0.49-1.47c0.08-0.53,0.07-1.06,0-1.58c-0.08-0.54-0.24-1.05-0.48-1.54c-0.24-0.48-0.55-0.9-0.92-1.24
		c-0.37-0.34-0.8-0.59-1.3-0.76c-0.49-0.16-1.03-0.2-1.62-0.11c-0.62,0.09-1.13,0.29-1.56,0.6c-0.42,0.31-0.76,0.69-1.01,1.13
		c-0.25,0.44-0.42,0.93-0.5,1.46C307.35,30.67,307.35,31.2,307.43,31.72z"/>
</g>
<g>
	<path class="st4" d="M4.02,39.84v-8.97H0.84v-1.2h7.65v1.2H5.29v8.97H4.02z"/>
	<path class="st4" d="M10.08,39.84v-7.37h1.07v1.12c0.27-0.52,0.52-0.87,0.75-1.03c0.23-0.17,0.48-0.25,0.76-0.25
		c0.4,0,0.81,0.13,1.22,0.4l-0.41,1.16c-0.29-0.18-0.58-0.27-0.87-0.27c-0.26,0-0.49,0.08-0.7,0.25s-0.35,0.39-0.44,0.68
		c-0.13,0.44-0.2,0.93-0.2,1.46v3.86H10.08z"/>
	<path class="st4" d="M20.12,39.84v-1.08c-0.54,0.83-1.28,1.25-2.22,1.25c-0.41,0-0.8-0.08-1.15-0.25c-0.36-0.17-0.62-0.38-0.8-0.63
		c-0.17-0.25-0.3-0.56-0.37-0.93c-0.05-0.25-0.07-0.63-0.07-1.17v-4.57h1.18v4.09c0,0.65,0.02,1.09,0.07,1.32
		c0.07,0.33,0.23,0.59,0.47,0.77c0.24,0.19,0.54,0.28,0.89,0.28c0.36,0,0.69-0.1,1-0.29c0.31-0.19,0.53-0.45,0.66-0.78
		c0.13-0.33,0.19-0.81,0.19-1.44v-3.95h1.18v7.37H20.12z"/>
	<path class="st4" d="M23.52,37.64l1.17-0.19c0.07,0.5,0.25,0.87,0.55,1.14s0.72,0.4,1.26,0.4c0.54,0,0.95-0.12,1.21-0.35
		c0.26-0.23,0.4-0.51,0.4-0.82c0-0.28-0.12-0.5-0.35-0.67c-0.16-0.11-0.57-0.25-1.21-0.42c-0.87-0.23-1.47-0.43-1.81-0.6
		c-0.34-0.17-0.59-0.4-0.76-0.7c-0.17-0.3-0.26-0.63-0.26-0.99c0-0.33,0.07-0.63,0.21-0.91c0.14-0.28,0.34-0.51,0.58-0.7
		c0.18-0.14,0.44-0.26,0.75-0.36c0.32-0.1,0.66-0.15,1.02-0.15c0.55,0,1.03,0.08,1.44,0.25c0.41,0.17,0.72,0.39,0.92,0.68
		c0.2,0.28,0.33,0.67,0.41,1.14l-1.16,0.17c-0.05-0.38-0.21-0.67-0.46-0.89c-0.25-0.21-0.61-0.32-1.07-0.32
		c-0.54,0-0.93,0.09-1.17,0.28c-0.23,0.19-0.35,0.41-0.35,0.67c0,0.16,0.05,0.31,0.15,0.44c0.1,0.13,0.25,0.25,0.45,0.33
		c0.12,0.05,0.47,0.15,1.05,0.32c0.84,0.24,1.42,0.43,1.75,0.58c0.33,0.15,0.59,0.37,0.78,0.66c0.19,0.29,0.28,0.64,0.28,1.07
		c0,0.42-0.12,0.81-0.35,1.18c-0.23,0.37-0.56,0.65-1,0.85s-0.93,0.3-1.47,0.3c-0.91,0-1.6-0.2-2.08-0.6
		C23.96,39.01,23.65,38.42,23.52,37.64z"/>
	<path class="st4" d="M34.28,38.72l0.17,1.1c-0.33,0.07-0.63,0.11-0.9,0.11c-0.43,0-0.76-0.07-1-0.21s-0.4-0.33-0.5-0.57
		c-0.1-0.23-0.15-0.72-0.15-1.47v-4.24h-0.87v-0.97h0.87v-1.82l1.18-0.75v2.57h1.19v0.97h-1.19v4.31c0,0.36,0.02,0.58,0.06,0.69
		c0.04,0.1,0.11,0.18,0.2,0.24c0.09,0.06,0.23,0.09,0.4,0.09C33.89,38.77,34.06,38.76,34.28,38.72z"/>
	<path class="st4" d="M41.17,37.47l1.22,0.16c-0.19,0.75-0.55,1.34-1.07,1.75c-0.52,0.42-1.19,0.63-2,0.63c-1.02,0-1.83-0.33-2.43-1
		c-0.6-0.66-0.9-1.59-0.9-2.79c0-1.24,0.3-2.2,0.91-2.89c0.61-0.68,1.39-1.03,2.36-1.03c0.93,0,1.7,0.33,2.29,1.01
		c0.59,0.67,0.89,1.61,0.89,2.83c0,0.07,0,0.19-0.01,0.33h-5.21c0.04,0.81,0.26,1.43,0.65,1.86c0.39,0.43,0.88,0.65,1.46,0.65
		c0.43,0,0.81-0.12,1.11-0.36C40.75,38.38,40.99,38,41.17,37.47z M37.29,35.45h3.9c-0.05-0.62-0.2-1.08-0.45-1.39
		c-0.38-0.48-0.87-0.72-1.47-0.72c-0.54,0-1,0.19-1.37,0.58S37.33,34.81,37.29,35.45z"/>
	<path class="st4" d="M49.38,39.84v-0.93c-0.44,0.73-1.09,1.1-1.95,1.1c-0.56,0-1.07-0.16-1.54-0.49c-0.47-0.32-0.83-0.78-1.09-1.36
		c-0.26-0.58-0.39-1.25-0.39-2c0-0.74,0.12-1.4,0.35-2c0.23-0.6,0.58-1.06,1.05-1.38c0.47-0.32,0.98-0.48,1.56-0.48
		c0.42,0,0.8,0.09,1.13,0.28s0.6,0.43,0.8,0.73v-3.65h1.18v10.17H49.38z M45.63,36.17c0,0.94,0.19,1.65,0.57,2.12
		c0.38,0.47,0.82,0.7,1.34,0.7c0.52,0,0.96-0.22,1.32-0.67c0.36-0.45,0.54-1.13,0.54-2.04c0-1.01-0.18-1.75-0.55-2.22
		s-0.82-0.71-1.36-0.71c-0.53,0-0.97,0.23-1.32,0.68C45.81,34.47,45.63,35.19,45.63,36.17z"/>
	<path class="st4" d="M57.71,36.57l1.2-0.11c0.06,0.51,0.19,0.93,0.4,1.25c0.21,0.33,0.53,0.59,0.97,0.79s0.93,0.3,1.48,0.3
		c0.49,0,0.92-0.08,1.29-0.23c0.37-0.15,0.65-0.36,0.83-0.63s0.27-0.56,0.27-0.87c0-0.32-0.09-0.6-0.26-0.84
		c-0.18-0.24-0.47-0.44-0.87-0.6c-0.26-0.11-0.83-0.27-1.72-0.5c-0.89-0.22-1.51-0.44-1.86-0.63c-0.46-0.25-0.8-0.57-1.03-0.95
		c-0.23-0.38-0.34-0.8-0.34-1.27c0-0.51,0.14-0.99,0.41-1.44s0.68-0.79,1.21-1.02c0.53-0.23,1.12-0.35,1.77-0.35
		c0.72,0,1.35,0.12,1.89,0.36c0.55,0.24,0.97,0.6,1.26,1.07s0.45,1.01,0.47,1.6l-1.22,0.1c-0.07-0.64-0.29-1.13-0.67-1.46
		c-0.38-0.33-0.94-0.49-1.68-0.49c-0.77,0-1.33,0.15-1.69,0.45c-0.35,0.3-0.53,0.66-0.53,1.08c0,0.37,0.13,0.67,0.38,0.9
		c0.25,0.24,0.89,0.48,1.92,0.72c1.04,0.25,1.75,0.46,2.14,0.65c0.56,0.27,0.98,0.62,1.24,1.04c0.27,0.42,0.4,0.9,0.4,1.45
		c0,0.54-0.15,1.05-0.44,1.53s-0.72,0.85-1.27,1.12c-0.55,0.27-1.17,0.4-1.86,0.4c-0.87,0-1.6-0.13-2.19-0.4
		c-0.59-0.27-1.05-0.67-1.39-1.21C57.91,37.86,57.73,37.25,57.71,36.57z"/>
	<path class="st4" d="M67.95,31.11v-1.44h1.18v1.44H67.95z M67.95,39.84v-7.37h1.18v7.37H67.95z"/>
	<path class="st4" d="M71.89,39.84v-7.37h1.07v1.05c0.51-0.81,1.25-1.21,2.22-1.21c0.42,0,0.81,0.08,1.16,0.24
		c0.35,0.16,0.62,0.37,0.79,0.63c0.18,0.26,0.3,0.57,0.37,0.92c0.04,0.23,0.07,0.64,0.07,1.21v4.53h-1.18v-4.48
		c0-0.51-0.05-0.89-0.14-1.14c-0.09-0.25-0.26-0.45-0.49-0.6c-0.23-0.15-0.51-0.23-0.83-0.23c-0.5,0-0.94,0.17-1.31,0.51
		c-0.37,0.34-0.55,0.98-0.55,1.92v4.02H71.89z"/>
	<path class="st4" d="M84.9,37.14l1.17,0.16c-0.13,0.85-0.45,1.51-0.98,1.99c-0.52,0.48-1.17,0.72-1.93,0.72
		c-0.96,0-1.73-0.33-2.31-0.99c-0.58-0.66-0.87-1.6-0.87-2.83c0-0.8,0.13-1.49,0.38-2.09s0.63-1.04,1.14-1.34
		c0.51-0.3,1.07-0.45,1.67-0.45c0.76,0,1.38,0.2,1.86,0.61c0.48,0.41,0.79,0.98,0.93,1.72l-1.15,0.19c-0.11-0.49-0.3-0.87-0.58-1.12
		c-0.28-0.25-0.62-0.38-1.01-0.38c-0.6,0-1.08,0.23-1.45,0.68c-0.37,0.45-0.56,1.16-0.56,2.14c0,0.99,0.18,1.71,0.54,2.16
		c0.36,0.45,0.83,0.67,1.41,0.67c0.46,0,0.85-0.15,1.17-0.45C84.62,38.23,84.82,37.77,84.9,37.14z"/>
	<path class="st4" d="M92.82,37.47l1.22,0.16c-0.19,0.75-0.55,1.34-1.07,1.75c-0.52,0.42-1.19,0.63-2,0.63c-1.02,0-1.83-0.33-2.43-1
		c-0.6-0.66-0.9-1.59-0.9-2.79c0-1.24,0.3-2.2,0.91-2.89c0.61-0.68,1.39-1.03,2.36-1.03c0.93,0,1.7,0.33,2.29,1.01
		c0.59,0.67,0.89,1.61,0.89,2.83c0,0.07,0,0.19-0.01,0.33h-5.21c0.04,0.81,0.26,1.43,0.65,1.86c0.39,0.43,0.88,0.65,1.46,0.65
		c0.43,0,0.81-0.12,1.11-0.36C92.4,38.38,92.64,38,92.82,37.47z M88.93,35.45h3.9c-0.05-0.62-0.2-1.08-0.45-1.39
		c-0.38-0.48-0.87-0.72-1.47-0.72c-0.54,0-1,0.19-1.37,0.58S88.97,34.81,88.93,35.45z"/>
	<path class="st4" d="M105.32,39.84h-1.18v-7.96c-0.29,0.29-0.66,0.57-1.12,0.86s-0.88,0.5-1.25,0.65v-1.21
		c0.66-0.33,1.24-0.73,1.74-1.19c0.5-0.47,0.85-0.92,1.05-1.36h0.76V39.84z"/>
	<path class="st4" d="M109.49,37.49l1.14-0.11c0.1,0.56,0.28,0.97,0.55,1.23c0.27,0.25,0.62,0.38,1.05,0.38
		c0.36,0,0.68-0.09,0.96-0.26c0.27-0.18,0.5-0.41,0.67-0.7c0.18-0.29,0.32-0.69,0.44-1.19c0.12-0.5,0.18-1.01,0.18-1.53
		c0-0.06,0-0.14-0.01-0.25c-0.24,0.4-0.56,0.72-0.97,0.97s-0.85,0.37-1.33,0.37c-0.8,0-1.47-0.31-2.03-0.92
		c-0.55-0.61-0.83-1.42-0.83-2.41c0-1.03,0.29-1.86,0.87-2.49c0.58-0.63,1.3-0.94,2.17-0.94c0.63,0,1.2,0.18,1.72,0.53
		c0.52,0.36,0.91,0.86,1.18,1.52c0.27,0.66,0.4,1.61,0.4,2.86c0,1.3-0.13,2.33-0.4,3.11c-0.27,0.77-0.67,1.36-1.19,1.76
		c-0.53,0.4-1.15,0.6-1.86,0.6c-0.75,0-1.37-0.22-1.85-0.66C109.87,38.91,109.59,38.29,109.49,37.49z M114.34,33
		c0-0.72-0.18-1.29-0.54-1.71c-0.36-0.42-0.8-0.63-1.31-0.63c-0.53,0-0.98,0.23-1.38,0.68s-0.59,1.04-0.59,1.76
		c0,0.65,0.19,1.17,0.56,1.58c0.37,0.4,0.83,0.61,1.37,0.61c0.55,0,1-0.2,1.35-0.61C114.16,34.28,114.34,33.72,114.34,33z"/>
	<path class="st4" d="M117.94,37.49l1.14-0.11c0.1,0.56,0.28,0.97,0.55,1.23c0.27,0.25,0.62,0.38,1.05,0.38
		c0.36,0,0.68-0.09,0.96-0.26c0.27-0.18,0.5-0.41,0.67-0.7c0.18-0.29,0.32-0.69,0.44-1.19c0.12-0.5,0.18-1.01,0.18-1.53
		c0-0.06,0-0.14-0.01-0.25c-0.24,0.4-0.56,0.72-0.97,0.97s-0.85,0.37-1.33,0.37c-0.8,0-1.47-0.31-2.03-0.92
		c-0.55-0.61-0.83-1.42-0.83-2.41c0-1.03,0.29-1.86,0.87-2.49c0.58-0.63,1.3-0.94,2.17-0.94c0.63,0,1.2,0.18,1.72,0.53
		c0.52,0.36,0.91,0.86,1.18,1.52c0.27,0.66,0.4,1.61,0.4,2.86c0,1.3-0.13,2.33-0.4,3.11c-0.27,0.77-0.67,1.36-1.19,1.76
		c-0.53,0.4-1.15,0.6-1.86,0.6c-0.75,0-1.37-0.22-1.85-0.66C118.33,38.91,118.04,38.29,117.94,37.49z M122.79,33
		c0-0.72-0.18-1.29-0.54-1.71c-0.36-0.42-0.8-0.63-1.31-0.63c-0.53,0-0.98,0.23-1.38,0.68s-0.59,1.04-0.59,1.76
		c0,0.65,0.19,1.17,0.56,1.58c0.37,0.4,0.83,0.61,1.37,0.61c0.55,0,1-0.2,1.35-0.61C122.62,34.28,122.79,33.72,122.79,33z"/>
	<path class="st4" d="M126.39,37.49l1.14-0.11c0.1,0.56,0.28,0.97,0.55,1.23c0.27,0.25,0.62,0.38,1.05,0.38
		c0.36,0,0.68-0.09,0.96-0.26c0.27-0.18,0.5-0.41,0.67-0.7c0.18-0.29,0.32-0.69,0.44-1.19c0.12-0.5,0.18-1.01,0.18-1.53
		c0-0.06,0-0.14-0.01-0.25c-0.24,0.4-0.56,0.72-0.97,0.97s-0.85,0.37-1.33,0.37c-0.8,0-1.47-0.31-2.03-0.92
		c-0.55-0.61-0.83-1.42-0.83-2.41c0-1.03,0.29-1.86,0.87-2.49c0.58-0.63,1.3-0.94,2.17-0.94c0.63,0,1.2,0.18,1.72,0.53
		c0.52,0.36,0.91,0.86,1.18,1.52c0.27,0.66,0.4,1.61,0.4,2.86c0,1.3-0.13,2.33-0.4,3.11c-0.27,0.77-0.67,1.36-1.19,1.76
		c-0.53,0.4-1.15,0.6-1.86,0.6c-0.75,0-1.37-0.22-1.85-0.66C126.78,38.91,126.49,38.29,126.39,37.49z M131.24,33
		c0-0.72-0.18-1.29-0.54-1.71c-0.36-0.42-0.8-0.63-1.31-0.63c-0.53,0-0.98,0.23-1.38,0.68s-0.59,1.04-0.59,1.76
		c0,0.65,0.19,1.17,0.56,1.58c0.37,0.4,0.83,0.61,1.37,0.61c0.55,0,1-0.2,1.35-0.61C131.07,34.28,131.24,33.72,131.24,33z"/>
</g>
<path class="st4" d="M206.52,12.42v2.46c-0.01,0,0,0,0,0v-2.44c-0.04,0,0.04-0.01,0-0.01C206.56,12.43,206.47,12.42,206.52,12.42z"
	/>
<path class="st4" d="M207.54,16.2c-0.01,0-0.02-0.01-0.03-0.02h0.02C207.53,16.19,207.53,16.19,207.54,16.2z"/>
<path class="st4" d="M214.92,14.76c0.69,0.7,0.26,1.83-0.7,2c-1.81,0.31-2.42,1.74-2.55,2.16c-0.03,0.08-0.04,0.12-0.04,0.12
	c-0.74,2.08-2.98,3.6-5.62,3.6c-3.25,0-5.89-2.29-5.89-5.12c0-1.55,0.79-2.93,2.04-3.86c-1.09-0.75-1.76-1.76-1.76-2.87
	c0-2.26,2.77-4.09,6.2-4.09c1.63,0,3.09,0.44,4.19,1.12l-1.85,2.24l-0.08,0.07c-0.39-0.57-1.25-0.97-2.26-0.97
	c-1.37,0-2.48,0.73-2.48,1.63c0,0.8,0.85,1.45,1.98,1.61h0.08c0.13,0.02,0.21,0.03,0.35,0.03c0.01,0-0.01,0,0,0
	c0.04,0-0.04,0.01,0,0.01v3.2c-0.2-0.03-0.28,0-0.52,0c-1.2,0-2.17,0.84-2.17,1.88c0,1.04,0.97,1.89,2.17,1.89
	c1.19,0,2.16-0.85,2.16-1.89c0-0.33-0.1-0.64-0.27-0.91l-0.03-0.03c-0.08-0.13-0.18-0.25-0.3-0.35c-0.01-0.01-0.01-0.02-0.02-0.03
	c-0.01-0.01-0.01-0.01-0.01-0.02c-0.37-0.5-0.1-0.73-0.1-0.73h4.76c0.6,0,1.08-0.41,1.28-0.97c0.27-0.75,0.8-0.91,0.8-0.91
	c-0.17,0.61,0.57,1.11,0.57,1.11L214.92,14.76z"/>
<g>
	<g>
		<g>
			<polygon class="st2" points="332.53,21.6 333.43,35.09 329.72,35.34 329.26,28.85 326.88,34.15 323.49,29.25 323.95,35.74 
				320.24,35.99 319.34,22.5 323.04,22.25 326.47,27.89 328.82,21.85 			"/>
			<polygon class="st2" points="332.53,21.6 333.43,35.09 329.72,35.34 329.26,28.85 326.88,34.15 323.49,29.25 323.95,35.74 
				320.24,35.99 319.34,22.5 323.04,22.25 326.47,27.89 328.82,21.85 			"/>
		</g>
	</g>
	<g>
		<g>
			<polygon class="st3" points="332.53,21.6 333.43,35.09 329.72,35.34 329.26,28.85 326.88,34.15 323.49,29.25 323.95,35.74 
				320.24,35.99 319.34,22.5 323.04,22.25 326.47,27.89 328.82,21.85 			"/>
			<polygon class="st3" points="332.53,21.6 333.43,35.09 329.72,35.34 329.26,28.85 326.88,34.15 323.49,29.25 323.95,35.74 
				320.24,35.99 319.34,22.5 323.04,22.25 326.47,27.89 328.82,21.85 			"/>
		</g>
	</g>
	<g>
		<g>
			<polygon class="st0" points="332.53,21.6 333.43,35.09 329.72,35.34 329.26,28.85 326.88,34.15 323.49,29.25 323.95,35.74 
				320.24,35.99 319.34,22.5 323.04,22.25 326.47,27.89 328.82,21.85 			"/>
			<polygon class="st0" points="332.53,21.6 333.43,35.09 329.72,35.34 329.26,28.85 326.88,34.15 323.49,29.25 323.95,35.74 
				320.24,35.99 319.34,22.5 323.04,22.25 326.47,27.89 328.82,21.85 			"/>
		</g>
	</g>
</g>
<circle class="st0" cx="288.86" cy="39.85" r="1.92"/>
</svg>
