<?xml version="1.0" encoding="utf-8"?>
<!-- Generator: Adobe Illustrator 16.0.3, SVG Export Plug-In . SVG Version: 6.00 Build 0)  -->
<!DOCTYPE svg PUBLIC "-//W3C//DTD SVG 1.1//EN" "http://www.w3.org/Graphics/SVG/1.1/DTD/svg11.dtd">
<svg version="1.1" id="Layer_1" xmlns="http://www.w3.org/2000/svg" xmlns:xlink="http://www.w3.org/1999/xlink" x="0px" y="0px"
	 width="792px" height="612px" viewBox="0 0 792 612" enable-background="new 0 0 792 612" xml:space="preserve">
<g>
	<path fill="#FFA400" d="M539.709,53.223c0.007-14.858,7.793-27.847,19.477-35.244H169.055c-17.586,0-31.844,14.23-31.844,31.783
		c0,17.546,14.258,31.776,31.844,31.776h381.818C543.974,74.098,539.716,64.174,539.709,53.223z"/>
	<path fill="#FFA400" d="M611.242,459.961V53.223c0-16.379-13.303-29.654-29.715-29.654c-16.42,0-29.729,13.275-29.729,29.654
		c0,15.765,12.379,28.535,27.947,29.469h6.766v377.269H611.242z"/>
	<rect x="586.512" y="510.041" fill="#FFA400" width="24.73" height="32.293"/>
	<path fill="#FFA400" d="M339.647,510.041h-10.361h-3.535h-7.515v-0.498c-0.452-0.062-0.897-0.081-1.356-0.155
		c-3.036-0.5-6.105-1.269-9.889-2.368c-7.556-2.199-18.335-5.814-38.512-12.055l-31.132-9.633l30.977-10.112
		c27.752-9.026,38.29-12.857,48.064-14.517c0.627-0.102,1.228-0.143,1.849-0.224v-0.519h7.515h13.896h233.049V96.507H217.069
		h-13.816v13.816v477.438h369.443v-77.72H339.647z M308.387,340.95l-56.935,52.348c-3.022,2.779-7.704,2.719-10.658-0.128
		l-18.976-18.318c-3.089-2.981-3.177-7.903-0.195-10.988c2.981-3.09,7.899-3.174,10.989-0.196l13.708,13.235l51.545-47.394
		c3.164-2.903,8.075-2.698,10.982,0.463C311.753,333.128,311.545,338.046,308.387,340.95z M543.318,259.349H348.175
		c-4.291,0-7.771-3.481-7.771-7.771c0-4.294,3.481-7.771,7.771-7.771h195.144c4.29,0,7.771,3.477,7.771,7.771
		C551.09,255.868,547.608,259.349,543.318,259.349z M547.056,291.497c0,4.291-3.48,7.771-7.771,7.771H415.524
		c-4.29,0-7.771-3.48-7.771-7.771c0-4.291,3.48-7.771,7.771-7.771h123.761C543.575,283.725,547.056,287.206,547.056,291.497z
		 M388.757,291.497c0,4.291-3.48,7.771-7.771,7.771h-32.812c-4.291,0-7.771-3.48-7.771-7.771c0-4.291,3.481-7.771,7.771-7.771
		h32.812C385.277,283.725,388.757,287.206,388.757,291.497z M503.6,203.19H348.175c-4.291,0-7.771-3.481-7.771-7.771
		c0-4.294,3.481-7.771,7.771-7.771H503.6c4.29,0,7.771,3.477,7.771,7.771C511.37,199.709,507.89,203.19,503.6,203.19z
		 M340.403,152.569c0-4.293,3.481-7.771,7.771-7.771h138.729c4.29,0,7.771,3.478,7.771,7.771c0,4.291-3.481,7.771-7.771,7.771
		H348.175C343.884,160.34,340.403,156.859,340.403,152.569z M308.387,244.873l-56.935,52.344c-3.022,2.776-7.704,2.722-10.658-0.128
		l-18.976-18.318c-3.089-2.982-3.177-7.903-0.195-10.989c2.981-3.09,7.899-3.174,10.989-0.196l13.708,13.236l51.545-47.39
		c3.164-2.904,8.075-2.698,10.982,0.462C311.753,237.051,311.545,241.969,308.387,244.873z M308.387,148.784l-56.935,52.355
		c-3.022,2.776-7.71,2.719-10.658-0.132l-18.976-18.325c-3.089-2.981-3.177-7.899-0.195-10.985c2.981-3.09,7.906-3.174,10.989-0.192
		l13.708,13.236l51.545-47.397c3.164-2.904,8.075-2.698,10.982,0.462C311.753,140.962,311.545,145.88,308.387,148.784z
		 M340.403,351.74c0-4.294,3.481-7.771,7.771-7.771h195.144c4.29,0,7.771,3.478,7.771,7.771c0,4.29-3.481,7.771-7.771,7.771H348.175
		C343.884,359.512,340.403,356.03,340.403,351.74z M484.022,395.35H360.263c-4.29,0-7.771-3.481-7.771-7.771
		c0-4.291,3.481-7.771,7.771-7.771h123.759c4.291,0,7.771,3.48,7.771,7.771C491.793,391.868,488.313,395.35,484.022,395.35z
		 M545.619,395.35h-32.812c-4.29,0-7.771-3.481-7.771-7.771c0-4.291,3.481-7.771,7.771-7.771h32.812c4.29,0,7.771,3.48,7.771,7.771
		C553.391,391.868,549.909,395.35,545.619,395.35z M546.191,160.34h-32.811c-4.291,0-7.771-3.48-7.771-7.771
		c0-4.293,3.48-7.771,7.771-7.771h32.811c4.292,0,7.771,3.478,7.771,7.771C553.963,156.859,550.483,160.34,546.191,160.34z"/>
	<path fill="#002D5C" d="M297.864,137.343l-51.545,47.397l-13.708-13.236c-3.083-2.981-8.007-2.897-10.989,0.192
		c-2.982,3.086-2.894,8.004,0.195,10.985l18.976,18.325c2.948,2.851,7.636,2.908,10.658,0.132l56.935-52.355
		c3.158-2.904,3.366-7.822,0.459-10.979C305.938,134.645,301.028,134.439,297.864,137.343z"/>
	<path fill="#002D5C" d="M297.864,233.432l-51.545,47.39l-13.708-13.236c-3.089-2.978-8.007-2.894-10.989,0.196
		c-2.982,3.086-2.894,8.007,0.195,10.989l18.976,18.318c2.955,2.851,7.636,2.905,10.658,0.128l56.935-52.344
		c3.158-2.904,3.366-7.822,0.459-10.979C305.938,230.733,301.028,230.527,297.864,233.432z"/>
	<path fill="#002D5C" d="M297.864,329.509l-51.545,47.394l-13.708-13.235c-3.089-2.978-8.007-2.894-10.989,0.196
		c-2.982,3.085-2.894,8.007,0.195,10.988l18.976,18.318c2.955,2.847,7.636,2.907,10.658,0.128l56.935-52.348
		c3.158-2.904,3.366-7.822,0.459-10.979C305.938,326.811,301.028,326.605,297.864,329.509z"/>
	<path fill="#002D5C" d="M348.175,160.34h138.729c4.29,0,7.771-3.48,7.771-7.771c0-4.293-3.481-7.771-7.771-7.771H348.175
		c-4.291,0-7.771,3.478-7.771,7.771C340.403,156.859,343.884,160.34,348.175,160.34z"/>
	<path fill="#002D5C" d="M503.6,187.647H348.175c-4.291,0-7.771,3.477-7.771,7.771c0,4.29,3.481,7.771,7.771,7.771H503.6
		c4.29,0,7.771-3.481,7.771-7.771C511.37,191.125,507.89,187.647,503.6,187.647z"/>
	<path fill="#002D5C" d="M551.09,251.578c0-4.294-3.481-7.771-7.771-7.771H348.175c-4.291,0-7.771,3.477-7.771,7.771
		c0,4.29,3.481,7.771,7.771,7.771h195.144C547.608,259.349,551.09,255.868,551.09,251.578z"/>
	<path fill="#002D5C" d="M551.09,351.74c0-4.294-3.481-7.771-7.771-7.771H348.175c-4.291,0-7.771,3.478-7.771,7.771
		c0,4.29,3.481,7.771,7.771,7.771h195.144C547.608,359.512,551.09,356.03,551.09,351.74z"/>
	<path fill="#002D5C" d="M348.175,283.725c-4.291,0-7.771,3.48-7.771,7.771c0,4.291,3.481,7.771,7.771,7.771h32.812
		c4.291,0,7.771-3.48,7.771-7.771c0-4.291-3.48-7.771-7.771-7.771H348.175z"/>
	<path fill="#002D5C" d="M546.191,144.798h-32.811c-4.291,0-7.771,3.478-7.771,7.771c0,4.291,3.48,7.771,7.771,7.771h32.811
		c4.292,0,7.771-3.48,7.771-7.771C553.963,148.275,550.483,144.798,546.191,144.798z"/>
	<path fill="#002D5C" d="M545.619,379.807h-32.812c-4.29,0-7.771,3.48-7.771,7.771c0,4.29,3.481,7.771,7.771,7.771h32.812
		c4.29,0,7.771-3.481,7.771-7.771C553.391,383.287,549.909,379.807,545.619,379.807z"/>
	<path fill="#002D5C" d="M415.524,283.725c-4.29,0-7.771,3.48-7.771,7.771c0,4.291,3.48,7.771,7.771,7.771h123.761
		c4.29,0,7.771-3.48,7.771-7.771c0-4.291-3.48-7.771-7.771-7.771H415.524z"/>
	<path fill="#002D5C" d="M484.022,379.807H360.263c-4.29,0-7.771,3.48-7.771,7.771c0,4.29,3.481,7.771,7.771,7.771h123.759
		c4.291,0,7.771-3.481,7.771-7.771C491.793,383.287,488.313,379.807,484.022,379.807z"/>
	<path fill="#77777A" d="M318.236,499.101v-28.198c-8.068,1.288-18.719,5.032-46.695,14.166
		C301.479,494.331,311.039,497.879,318.236,499.101z"/>
	<polygon fill="#FFFFFF" points="626.205,480.684 626.205,470.322 338.96,470.322 329.286,470.322 328.598,470.322 328.598,480.684
		328.598,499.68 329.286,499.68 626.205,499.68 626.205,489.318 	"/>
	<path fill="#002D5C" d="M733.391,474.309c-2.611-4.735-6.605-8.276-11.179-10.671c-4.595-2.388-9.855-3.671-15.414-3.677h-20.15
		h-20.724h-18.995h-20.724h-2.873V53.223c0-6.945-1.728-13.475-4.73-19.232c-6.354-16.433-22.274-28.089-40.946-28.1H169.055
		c-24.251,0.007-43.922,19.621-43.932,43.872c0.01,24.248,19.685,43.858,43.932,43.865h20.383v2.88v505.069h397.074v-47.153h36.82
		v-44.382h2.873h20.724h18.995h20.724h20.15c7.406-0.02,14.301-2.267,19.766-6.461c2.725-2.105,5.1-4.736,6.827-7.887
		c1.726-3.144,2.771-6.847,2.765-10.691C736.162,481.156,735.116,477.453,733.391,474.309z M586.512,82.692h-6.766
		c-15.568-0.934-27.947-13.704-27.947-29.469c0-16.379,13.309-29.654,29.729-29.654c16.412,0,29.715,13.275,29.715,29.654v406.738
		h-24.73V82.692z M137.211,49.762c0-17.553,14.258-31.783,31.844-31.783h390.131c-11.684,7.397-19.47,20.386-19.477,35.244
		c0.007,10.952,4.265,20.875,11.164,28.316H169.055C151.469,81.539,137.211,67.308,137.211,49.762z M572.696,587.761H203.253
		V110.323V96.507h13.816h355.627v363.454H339.647h-13.896h-7.515v0.519c-0.621,0.081-1.221,0.122-1.849,0.224
		c-9.774,1.659-20.312,5.49-48.064,14.517l-30.977,10.112l31.132,9.633c20.177,6.24,30.957,9.855,38.512,12.055
		c3.784,1.1,6.854,1.868,9.889,2.368c0.458,0.074,0.904,0.094,1.356,0.155v0.498h7.515h3.535h10.361h233.049V587.761z
		 M271.542,485.068c27.976-9.134,38.627-12.878,46.695-14.166v28.198C311.039,497.879,301.479,494.331,271.542,485.068z
		 M611.242,542.334h-24.73v-32.293h24.73V542.334z M329.286,499.68h-0.688v-18.996v-10.361h0.688h9.674h287.245v10.361v8.635v10.361
		H329.286z M636.566,499.68v-18.996v-10.361h10.362h29.357v29.357H636.566z M706.798,499.68h-20.15v-10.361v-8.635v-10.361h20.15
		c10.489,0,18.996,6.563,18.996,14.68C725.794,493.109,717.287,499.68,706.798,499.68z"/>
	<path fill="#D25459" d="M706.798,470.322h-20.15v10.361v8.635v10.361h20.15c10.489,0,18.996-6.57,18.996-14.678
		C725.794,476.886,717.287,470.322,706.798,470.322z"/>
	<polygon fill="#77777A" points="646.929,470.322 636.566,470.322 636.566,480.684 636.566,499.68 676.286,499.68 676.286,470.322
		"/>
</g>
</svg>
